<?xml version="1.0" encoding="UTF-8"?>
<svg xmlns="http://www.w3.org/2000/svg" xmlns:xlink="http://www.w3.org/1999/xlink" width="206.14pt" height="43.96pt" viewBox="0 0 206.14 43.96" version="1.1">
<defs>
<clipPath id="clip1">
  <path d="M 190 11 L 206.140625 11 L 206.140625 30 L 190 30 Z M 190 11 "/>
</clipPath>
<clipPath id="clip2">
  <path d="M 50 35 L 58 35 L 58 43.960938 L 50 43.960938 Z M 50 35 "/>
</clipPath>
<clipPath id="clip3">
  <path d="M 59 36 L 68 36 L 68 43.960938 L 59 43.960938 Z M 59 36 "/>
</clipPath>
<clipPath id="clip4">
  <path d="M 68 36 L 76 36 L 76 43.960938 L 68 43.960938 Z M 68 36 "/>
</clipPath>
<clipPath id="clip5">
  <path d="M 76 36 L 85 36 L 85 43.960938 L 76 43.960938 Z M 76 36 "/>
</clipPath>
<clipPath id="clip6">
  <path d="M 86 36 L 91 36 L 91 43.960938 L 86 43.960938 Z M 86 36 "/>
</clipPath>
<clipPath id="clip7">
  <path d="M 91 35 L 100 35 L 100 43.960938 L 91 43.960938 Z M 91 35 "/>
</clipPath>
<clipPath id="clip8">
  <path d="M 104 36 L 113 36 L 113 43.960938 L 104 43.960938 Z M 104 36 "/>
</clipPath>
<clipPath id="clip9">
  <path d="M 114 36 L 123 36 L 123 43.960938 L 114 43.960938 Z M 114 36 "/>
</clipPath>
<clipPath id="clip10">
  <path d="M 124 36 L 128 36 L 128 43.960938 L 124 43.960938 Z M 124 36 "/>
</clipPath>
<clipPath id="clip11">
  <path d="M 129 35 L 138 35 L 138 43.960938 L 129 43.960938 Z M 129 35 "/>
</clipPath>
<clipPath id="clip12">
  <path d="M 139 36 L 148 36 L 148 43.960938 L 139 43.960938 Z M 139 36 "/>
</clipPath>
<clipPath id="clip13">
  <path d="M 0 0 L 44 0 L 44 43.960938 L 0 43.960938 Z M 0 0 "/>
</clipPath>
<clipPath id="clip14">
  <path d="M 20 33 L 24 33 L 24 43.960938 L 20 43.960938 Z M 20 33 "/>
</clipPath>
<clipPath id="clip15">
  <path d="M 20 33 L 25 33 L 25 43.960938 L 20 43.960938 Z M 20 33 "/>
</clipPath>
</defs>
<g id="surface1">
<path style=" stroke:none;fill-rule:nonzero;fill:rgb(11.372375%,25.489807%,39.215088%);fill-opacity:1;" d="M 54.664063 25.972656 C 51.777344 23.246094 50.363281 18.585938 50.363281 14.730469 C 50.363281 10.996094 51.574219 7.144531 54.464844 4.09375 C 56.511719 1.925781 60.125 0.0351563 64.5 0.0351563 C 68.15625 0.0351563 71.164063 1.402344 72.609375 2.246094 C 73.132813 2.566406 73.335938 2.523438 73.410156 2.246094 L 73.738281 1.078125 C 73.8125 0.839844 73.898438 0.839844 74.257813 0.839844 C 74.621094 0.839844 74.699219 0.921875 74.699219 1.484375 C 74.699219 2.246094 75.503906 8.144531 75.703125 9.273438 L 75.546875 9.671875 L 74.945313 9.835938 C 74.738281 9.875 74.660156 9.835938 74.542969 9.511719 C 73.976563 8.1875 73.09375 6.257813 71.40625 4.535156 C 69.726563 2.808594 67.59375 1.441406 64.417969 1.441406 C 57.234375 1.441406 54.34375 7.824219 54.382813 13.6875 C 54.382813 16.011719 55.105469 20.550781 58.238281 24.003906 C 60.96875 27.058594 63.257813 27.382813 65.949219 27.382813 C 70.484375 27.382813 74.019531 24.886719 75.863281 22.28125 L 76.1875 22.164063 L 76.707031 22.5625 L 76.789063 22.921875 C 74.378906 26.414063 70.484375 29.671875 64.824219 29.671875 C 60.085938 29.671875 57.078125 28.183594 54.664063 25.972656 "/>
<path style=" stroke:none;fill-rule:nonzero;fill:rgb(11.372375%,25.489807%,39.215088%);fill-opacity:1;" d="M 90.878906 24.292969 C 90.878906 26.578125 91.355469 27.300781 92.082031 27.300781 C 92.722656 27.300781 93.289063 26.980469 93.492188 26.695313 L 93.890625 26.535156 L 94.289063 26.859375 C 94.414063 26.980469 94.488281 27.179688 94.25 27.582031 C 93.929688 28.183594 93.164063 29.550781 91.121094 29.550781 C 89.671875 29.550781 88.628906 28.503906 88.269531 26.859375 L 88.191406 26.859375 C 87.34375 27.859375 86.019531 28.703125 84.214844 29.308594 C 83.453125 29.550781 82.726563 29.550781 81.84375 29.550781 C 80.882813 29.550781 79.4375 28.746094 79.4375 26.21875 C 79.4375 24.371094 80.28125 22.765625 83.453125 21.359375 C 85.257813 20.554688 87.34375 19.589844 87.984375 19.03125 L 87.984375 16.457031 C 87.90625 15.777344 87.867188 14.738281 87.425781 14.210938 C 86.988281 13.6875 86.183594 13.324219 85.019531 13.324219 C 84.214844 13.324219 82.972656 13.652344 82.40625 14.167969 C 81.84375 14.691406 82.203125 15.296875 82.203125 16.019531 C 82.203125 17.425781 81.71875 18.304688 80.074219 18.304688 C 79.4375 18.304688 79.113281 17.945313 79.113281 17.019531 C 79.113281 15.734375 80.234375 14.210938 81.886719 13.246094 C 83.570313 12.242188 84.972656 11.84375 86.78125 11.84375 C 88.667969 11.84375 89.433594 12.40625 89.992188 12.921875 C 90.839844 13.765625 90.878906 14.691406 90.878906 15.777344 Z M 87.945313 20.234375 C 86.503906 21.316406 82.566406 22.121094 82.566406 25.453125 C 82.566406 26.9375 83.453125 27.664063 84.65625 27.664063 C 85.820313 27.664063 87.945313 26.253906 87.945313 25.175781 L 87.945313 20.234375 "/>
<path style=" stroke:none;fill-rule:nonzero;fill:rgb(11.372375%,25.489807%,39.215088%);fill-opacity:1;" d="M 101.273438 17.101563 C 101.273438 19.191406 101.273438 25.253906 101.316406 26.496094 C 101.355469 27.183594 101.519531 27.746094 102.359375 27.746094 L 104.167969 27.746094 C 104.527344 27.746094 104.609375 27.867188 104.609375 28.105469 L 104.609375 28.785156 L 104.371094 29.1875 C 104.085938 29.1875 102.320313 29.070313 99.832031 29.070313 C 97.257813 29.070313 95.652344 29.1875 95.292969 29.1875 L 95.015625 28.785156 L 95.015625 28.105469 C 95.015625 27.820313 95.089844 27.746094 95.535156 27.746094 L 97.457031 27.746094 C 97.902344 27.746094 98.304688 27.460938 98.34375 26.738281 C 98.386719 25.492188 98.386719 18.585938 98.386719 16.257813 L 98.386719 13.730469 C 98.386719 10.878906 98.34375 7.222656 98.265625 6.183594 C 98.179688 4.816406 97.539063 4.171875 96.257813 3.773438 L 95.453125 3.488281 L 95.214844 3.289063 L 95.214844 2.96875 L 95.574219 2.6875 C 96.980469 2.046875 98.785156 1.320313 100.269531 0.359375 C 100.632813 0.117188 100.871094 0.0351563 101.117188 0.0351563 C 101.398438 0.0351563 101.472656 0.234375 101.433594 0.761719 C 101.398438 2.96875 101.273438 11.324219 101.273438 13.527344 L 101.273438 17.101563 "/>
<path style=" stroke:none;fill-rule:nonzero;fill:rgb(11.372375%,25.489807%,39.215088%);fill-opacity:1;" d="M 108.90625 17.382813 C 108.90625 16.011719 108.664063 15.296875 106.652344 14.972656 L 106.296875 14.691406 L 106.296875 14.332031 L 106.574219 14.050781 C 107.859375 13.566406 109.390625 12.925781 110.910156 12.082031 C 111.234375 11.917969 111.433594 11.84375 111.675781 11.84375 L 111.875 12.328125 C 111.792969 13.007813 111.792969 15.535156 111.792969 18.867188 L 111.792969 23.246094 C 111.792969 24.8125 111.792969 26.253906 111.832031 26.695313 C 111.914063 27.460938 112.03125 27.742188 112.480469 27.742188 L 114.328125 27.742188 C 114.648438 27.742188 114.726563 27.867188 114.726563 28.105469 L 114.726563 28.785156 L 114.363281 29.1875 C 114.046875 29.1875 112.195313 29.070313 110.511719 29.070313 C 108.179688 29.070313 106.613281 29.1875 106.171875 29.1875 L 105.851563 28.867188 L 105.851563 28.066406 L 106.253906 27.742188 L 108.226563 27.742188 C 108.664063 27.742188 108.820313 27.582031 108.859375 26.9375 C 108.90625 25.734375 108.90625 24.488281 108.90625 23.285156 Z M 107.097656 5.136719 C 107.097656 4.132813 107.941406 3.050781 109.546875 3.050781 C 110.949219 3.050781 111.636719 4.132813 111.636719 5.015625 C 111.636719 6.058594 110.910156 7.222656 109.308594 7.222656 C 108.421875 7.222656 107.097656 6.421875 107.097656 5.136719 "/>
<path style=" stroke:none;fill-rule:nonzero;fill:rgb(11.372375%,25.489807%,39.215088%);fill-opacity:1;" d="M 119.824219 14.25 L 117.050781 14.25 C 116.855469 14.25 116.769531 14.167969 116.855469 13.8125 L 117.015625 12.601563 C 117.050781 12.363281 117.179688 12.328125 117.496094 12.328125 L 119.824219 12.328125 L 119.824219 11.558594 C 119.824219 7.589844 120.949219 4.976563 122.519531 3.210938 C 124.640625 0.882813 126.851563 0.0351563 129.097656 0.0351563 C 130.988281 0.0351563 132.757813 0.761719 132.757813 2.289063 C 132.757813 3.25 131.710938 4.007813 131.066406 4.007813 C 130.667969 4.007813 130.261719 3.933594 129.941406 3.773438 C 129.582031 3.570313 129.136719 3.050781 128.980469 2.847656 C 128.457031 2.203125 127.894531 1.925781 127.136719 1.925781 C 126.089844 1.925781 125.007813 2.203125 124.121094 3.328125 C 122.636719 5.21875 122.714844 8.710938 122.714844 11.519531 L 122.714844 12.328125 L 127.574219 12.328125 L 127.855469 12.726563 L 127.652344 14.050781 L 127.136719 14.25 L 122.714844 14.25 L 122.714844 17.824219 C 122.714844 22.5625 122.714844 26.253906 122.753906 26.695313 C 122.835938 27.378906 122.953125 27.742188 123.796875 27.742188 L 126.089844 27.742188 C 126.449219 27.742188 126.53125 27.820313 126.53125 28.0625 L 126.53125 28.703125 C 126.53125 29.027344 126.449219 29.1875 126.25 29.1875 C 126.007813 29.1875 124.519531 29.070313 121.433594 29.070313 C 119.21875 29.070313 117.179688 29.1875 116.855469 29.1875 L 116.535156 28.90625 L 116.535156 28.023438 C 116.535156 27.820313 116.609375 27.742188 116.933594 27.742188 L 118.863281 27.742188 C 119.621094 27.742188 119.78125 27.257813 119.824219 26.339844 L 119.824219 14.25 "/>
<path style=" stroke:none;fill-rule:nonzero;fill:rgb(11.372375%,25.489807%,39.215088%);fill-opacity:1;" d="M 130.382813 26.78125 C 128.535156 24.566406 128.175781 23.085938 128.175781 20.234375 C 128.175781 18.183594 129.261719 15.617188 131.628906 13.765625 C 133.714844 12.164063 135.683594 11.84375 137.007813 11.84375 C 139.214844 11.84375 141.425781 12.960938 142.632813 14.171875 C 144.4375 16.011719 145.359375 18.105469 145.359375 20.710938 C 145.359375 25.09375 141.425781 29.550781 136.488281 29.550781 C 134.5625 29.550781 132.070313 28.785156 130.382813 26.78125 M 141.988281 20.3125 C 141.988281 15.859375 138.734375 13.042969 136.6875 13.042969 C 135.601563 13.042969 134.5625 13.285156 133.59375 14.328125 C 132.027344 15.9375 131.464844 17.582031 131.464844 20.636719 C 131.464844 22.882813 131.710938 24.414063 132.992188 26.253906 C 133.917969 27.582031 135.078125 28.34375 136.96875 28.34375 C 140.019531 28.34375 141.988281 24.613281 141.988281 20.3125 "/>
<path style=" stroke:none;fill-rule:nonzero;fill:rgb(11.372375%,25.489807%,39.215088%);fill-opacity:1;" d="M 149.054688 18.386719 C 149.054688 16.339844 148.730469 15.9375 147.605469 15.335938 L 146.84375 14.933594 L 146.519531 14.65625 L 146.519531 14.410156 L 146.84375 14.050781 L 150.816406 12.003906 L 151.378906 11.84375 L 151.660156 12.328125 L 151.859375 15.09375 L 152.023438 15.09375 C 153.230469 13.246094 155.113281 11.601563 156.84375 11.601563 C 158.207031 11.601563 158.894531 12.441406 158.894531 13.367188 C 158.894531 14.53125 157.929688 15.335938 157.203125 15.335938 C 156.761719 15.335938 156.363281 15.171875 156.039063 15.015625 C 155.71875 14.808594 155.238281 14.691406 154.714844 14.691406 C 154.070313 14.691406 153.023438 15.09375 152.347656 16.375 C 152.101563 16.820313 151.941406 17.542969 151.941406 17.664063 L 151.941406 26.097656 C 151.941406 27.339844 152.226563 27.746094 153.066406 27.746094 L 154.957031 27.746094 L 155.238281 28.105469 L 155.238281 28.828125 L 155.035156 29.1875 C 154.792969 29.1875 152.945313 29.070313 150.777344 29.070313 C 148.289063 29.070313 146.601563 29.1875 146.359375 29.1875 C 146.199219 29.1875 146.121094 29.105469 146.121094 28.785156 L 146.121094 28.105469 C 146.121094 27.820313 146.199219 27.746094 146.5625 27.746094 L 148.125 27.746094 C 148.730469 27.746094 149.011719 27.5 149.011719 26.980469 C 149.054688 25.652344 149.054688 24.246094 149.054688 22.164063 L 149.054688 18.386719 "/>
<path style=" stroke:none;fill-rule:nonzero;fill:rgb(11.372375%,25.489807%,39.215088%);fill-opacity:1;" d="M 176.4375 26.898438 C 176.4375 27.542969 176.792969 27.746094 177.320313 27.746094 L 178.605469 27.746094 C 178.964844 27.746094 179.039063 27.859375 179.039063 28.105469 L 179.039063 28.746094 L 178.722656 29.183594 C 178.4375 29.183594 177.195313 29.070313 174.90625 29.070313 C 172.859375 29.070313 171.574219 29.183594 171.296875 29.183594 C 171.050781 29.183594 170.976563 29.070313 170.976563 28.746094 L 170.976563 28.105469 C 170.976563 27.824219 171.09375 27.746094 171.492188 27.746094 L 172.65625 27.746094 C 173.097656 27.746094 173.421875 27.542969 173.460938 26.816406 C 173.503906 25.777344 173.542969 24.492188 173.542969 23.445313 L 173.542969 18.144531 C 173.542969 16.542969 173.542969 15.375 172.378906 14.53125 C 171.417969 13.808594 170.449219 13.808594 169.449219 13.808594 C 168.804688 13.808594 167.402344 14.089844 166.195313 15.375 C 165.394531 16.257813 165.273438 17.34375 165.273438 18.105469 L 165.273438 26.414063 C 165.273438 27.5 165.394531 27.746094 166.234375 27.746094 L 167.238281 27.746094 C 167.5625 27.746094 167.640625 27.859375 167.640625 28.144531 L 167.640625 28.828125 L 167.359375 29.183594 C 167.082031 29.183594 165.992188 29.070313 163.867188 29.070313 C 161.816406 29.070313 160.53125 29.183594 160.292969 29.183594 L 160.011719 28.828125 L 160.011719 28.105469 C 160.011719 27.859375 160.09375 27.746094 160.414063 27.746094 L 161.582031 27.746094 C 162.101563 27.746094 162.382813 27.621094 162.382813 26.941406 L 162.382813 17.542969 C 162.382813 16.339844 161.742188 15.652344 160.734375 15.171875 L 160.414063 15.019531 L 160.09375 14.65625 L 160.09375 14.453125 L 160.453125 14.050781 L 163.90625 12.121094 C 164.230469 11.964844 164.46875 11.835938 164.628906 11.835938 C 164.828125 11.835938 164.910156 12.003906 164.949219 12.328125 L 165.230469 14.773438 L 165.316406 14.773438 C 166.476563 13.324219 168.804688 11.835938 170.8125 11.835938 C 172.019531 11.835938 173.261719 12.085938 174.226563 12.726563 C 175.429688 13.527344 176.4375 15.539063 176.4375 16.542969 L 176.4375 26.898438 "/>
<path style=" stroke:none;fill-rule:nonzero;fill:rgb(11.372375%,25.489807%,39.215088%);fill-opacity:1;" d="M 183.496094 17.382813 C 183.496094 16.011719 183.261719 15.296875 181.25 14.972656 L 180.890625 14.691406 L 180.890625 14.332031 L 181.171875 14.050781 C 182.457031 13.566406 183.980469 12.925781 185.511719 12.082031 C 185.832031 11.917969 186.03125 11.84375 186.269531 11.84375 L 186.46875 12.328125 C 186.390625 13.007813 186.390625 15.535156 186.390625 18.867188 L 186.390625 23.246094 C 186.390625 24.8125 186.390625 26.253906 186.429688 26.695313 C 186.511719 27.460938 186.628906 27.742188 187.074219 27.742188 L 188.921875 27.742188 C 189.242188 27.742188 189.316406 27.867188 189.316406 28.105469 L 189.316406 28.785156 L 188.960938 29.1875 C 188.640625 29.1875 186.792969 29.070313 185.105469 29.070313 C 182.773438 29.070313 181.214844 29.1875 180.769531 29.1875 L 180.449219 28.867188 L 180.449219 28.066406 L 180.847656 27.742188 L 182.820313 27.742188 C 183.261719 27.742188 183.421875 27.582031 183.460938 26.9375 C 183.496094 25.734375 183.496094 24.488281 183.496094 23.285156 Z M 181.691406 5.136719 C 181.691406 4.132813 182.535156 3.050781 184.144531 3.050781 C 185.546875 3.050781 186.230469 4.132813 186.230469 5.015625 C 186.230469 6.058594 185.511719 7.222656 183.902344 7.222656 C 183.015625 7.222656 181.691406 6.421875 181.691406 5.136719 "/>
<g clip-path="url(#clip1)" clip-rule="nonzero">
<path style=" stroke:none;fill-rule:nonzero;fill:rgb(11.372375%,25.489807%,39.215088%);fill-opacity:1;" d="M 202.613281 24.292969 C 202.613281 26.578125 203.089844 27.300781 203.8125 27.300781 C 204.457031 27.300781 205.019531 26.980469 205.21875 26.695313 L 205.621094 26.535156 L 206.019531 26.859375 C 206.144531 26.980469 206.222656 27.179688 205.980469 27.582031 C 205.664063 28.183594 204.902344 29.550781 202.851563 29.550781 C 201.40625 29.550781 200.367188 28.503906 200 26.859375 L 199.921875 26.859375 C 199.082031 27.859375 197.75 28.703125 195.945313 29.308594 C 195.183594 29.550781 194.460938 29.550781 193.578125 29.550781 C 192.609375 29.550781 191.164063 28.746094 191.164063 26.21875 C 191.164063 24.371094 192.011719 22.765625 195.183594 21.359375 C 196.988281 20.554688 199.082031 19.589844 199.71875 19.03125 L 199.71875 16.457031 C 199.640625 15.777344 199.597656 14.738281 199.160156 14.210938 C 198.71875 13.6875 197.914063 13.324219 196.746094 13.324219 C 195.945313 13.324219 194.699219 13.652344 194.144531 14.167969 C 193.578125 14.691406 193.941406 15.296875 193.941406 16.019531 C 193.941406 17.425781 193.457031 18.304688 191.808594 18.304688 C 191.164063 18.304688 190.847656 17.945313 190.847656 17.019531 C 190.847656 15.734375 191.972656 14.210938 193.617188 13.246094 C 195.300781 12.242188 196.707031 11.84375 198.511719 11.84375 C 200.402344 11.84375 201.167969 12.40625 201.730469 12.921875 C 202.566406 13.765625 202.613281 14.691406 202.613281 15.777344 Z M 199.679688 20.234375 C 198.230469 21.316406 194.300781 22.121094 194.300781 25.453125 C 194.300781 26.9375 195.183594 27.664063 196.390625 27.664063 C 197.554688 27.664063 199.679688 26.253906 199.679688 25.175781 L 199.679688 20.234375 "/>
</g>
<g clip-path="url(#clip2)" clip-rule="nonzero">
<path style=" stroke:none;fill-rule:nonzero;fill:rgb(11.372375%,25.489807%,39.215088%);fill-opacity:1;" d="M 51.660156 42.953125 C 50.867188 42.207031 50.488281 40.933594 50.488281 39.886719 C 50.488281 38.867188 50.8125 37.808594 51.605469 36.984375 C 52.160156 36.386719 53.152344 35.875 54.34375 35.875 C 55.339844 35.875 56.160156 36.246094 56.554688 36.480469 L 56.769531 36.480469 L 56.859375 36.160156 L 57.003906 36.097656 L 57.125 36.265625 L 57.402344 38.394531 L 57.355469 38.503906 L 57.1875 38.554688 L 57.082031 38.464844 C 56.929688 38.097656 56.6875 37.570313 56.226563 37.105469 C 55.769531 36.632813 55.1875 36.257813 54.320313 36.257813 C 52.359375 36.257813 51.574219 38 51.582031 39.601563 C 51.582031 40.234375 51.78125 41.472656 52.636719 42.421875 C 53.382813 43.242188 54.003906 43.332031 54.734375 43.332031 C 55.976563 43.332031 56.941406 42.65625 57.441406 41.945313 L 57.53125 41.910156 L 57.675781 42.015625 L 57.695313 42.121094 C 57.035156 43.070313 55.976563 43.960938 54.429688 43.960938 C 53.136719 43.960938 52.320313 43.558594 51.660156 42.953125 "/>
</g>
<g clip-path="url(#clip3)" clip-rule="nonzero">
<path style=" stroke:none;fill-rule:nonzero;fill:rgb(11.372375%,25.489807%,39.215088%);fill-opacity:1;" d="M 60.847656 38.808594 C 60.847656 38 60.847656 37.300781 60.835938 36.980469 C 60.824219 36.621094 60.691406 36.433594 60.417969 36.433594 L 59.980469 36.433594 L 59.914063 36.359375 L 59.914063 36.085938 L 59.980469 36 C 60.078125 36 60.417969 36.039063 61.335938 36.039063 C 61.953125 36.039063 62.96875 36 63.164063 36 C 64.078125 36 64.804688 36.28125 65.21875 36.675781 C 65.574219 37.023438 65.785156 37.519531 65.785156 37.921875 C 65.785156 39.296875 65.160156 39.804688 63.757813 40.117188 L 63.757813 40.132813 L 64.265625 40.550781 L 65.261719 41.953125 L 66.222656 43.21875 L 67.011719 43.398438 L 67.101563 43.488281 L 67.101563 43.730469 L 67.011719 43.828125 C 66.921875 43.828125 66.644531 43.792969 66.160156 43.792969 L 65.273438 43.828125 L 64.8125 43.199219 L 64.078125 41.945313 L 63.378906 40.929688 C 63.09375 40.589844 62.828125 40.289063 62.195313 40.289063 L 61.828125 40.320313 L 61.828125 40.933594 C 61.828125 41.585938 61.839844 42.808594 61.855469 42.96875 L 62.128906 43.398438 L 62.816406 43.398438 L 62.90625 43.488281 L 62.90625 43.730469 L 62.78125 43.828125 C 62.664063 43.828125 62.390625 43.792969 61.347656 43.792969 C 60.355469 43.792969 60.097656 43.828125 59.980469 43.828125 L 59.890625 43.742188 L 59.890625 43.488281 L 59.949219 43.398438 L 60.398438 43.398438 L 60.824219 43.035156 C 60.847656 41.945313 60.847656 40.917969 60.847656 39.871094 Z M 61.828125 39.894531 L 62.324219 39.9375 C 64.320313 39.9375 64.699219 38.570313 64.699219 38.113281 C 64.699219 37.609375 64.472656 37.125 64.152344 36.863281 C 63.726563 36.523438 63.246094 36.359375 62.335938 36.359375 L 61.964844 36.449219 L 61.828125 36.796875 L 61.828125 39.894531 "/>
</g>
<g clip-path="url(#clip4)" clip-rule="nonzero">
<path style=" stroke:none;fill-rule:nonzero;fill:rgb(11.372375%,25.489807%,39.215088%);fill-opacity:1;" d="M 70.648438 39.601563 L 72.035156 39.53125 C 72.351563 39.480469 72.441406 39.390625 72.542969 39.050781 L 72.625 38.515625 L 72.707031 38.4375 L 72.980469 38.449219 L 73.042969 38.535156 L 73.011719 39.785156 C 73.011719 40.171875 73.054688 40.691406 73.078125 40.929688 L 73.011719 41.015625 L 72.769531 41.050781 L 72.683594 40.949219 L 72.5625 40.433594 L 72.09375 40.007813 C 71.578125 39.949219 70.820313 39.949219 70.648438 39.949219 L 70.648438 40.632813 C 70.648438 41.21875 70.667969 42.285156 70.667969 42.5 C 70.679688 43.070313 70.953125 43.292969 71.292969 43.359375 L 72.101563 43.433594 L 73.066406 43.402344 L 74.023438 43.015625 L 74.921875 41.867188 L 75.046875 41.804688 L 75.222656 41.902344 L 75.246094 42.054688 L 74.664063 43.664063 L 74.421875 43.828125 C 74.371094 43.828125 74.125 43.8125 73.472656 43.804688 C 72.816406 43.804688 71.75 43.792969 70.042969 43.792969 C 69.640625 43.792969 69.332031 43.804688 69.113281 43.804688 L 68.640625 43.828125 L 68.542969 43.753906 L 68.542969 43.457031 L 68.652344 43.402344 L 69.089844 43.402344 C 69.59375 43.402344 69.640625 43.324219 69.640625 42.917969 L 69.640625 39.25 C 69.640625 38.34375 69.617188 36.972656 69.605469 36.859375 C 69.566406 36.511719 69.453125 36.433594 69.046875 36.433594 L 68.652344 36.433594 L 68.5625 36.359375 L 68.5625 36.0625 L 68.640625 36.003906 C 68.886719 36.003906 69.269531 36.046875 69.984375 36.046875 L 70.46875 36.046875 C 71.554688 36.046875 72.636719 36.03125 73.71875 36.03125 L 74.164063 36.003906 L 74.25 36.0625 L 74.804688 37.824219 L 74.777344 37.921875 L 74.609375 38.011719 L 74.519531 37.980469 L 73.429688 36.726563 L 72.59375 36.433594 L 70.648438 36.386719 L 70.648438 39.601563 "/>
</g>
<g clip-path="url(#clip5)" clip-rule="nonzero">
<path style=" stroke:none;fill-rule:nonzero;fill:rgb(11.372375%,25.489807%,39.215088%);fill-opacity:1;" d="M 78.082031 38.761719 L 78.023438 36.742188 L 77.550781 36.433594 L 76.953125 36.433594 L 76.863281 36.359375 L 76.863281 36.0625 L 76.941406 36.003906 C 77.082031 36.003906 77.566406 36.039063 78.550781 36.039063 L 80.179688 36.003906 C 81.597656 36.003906 82.777344 36.171875 83.746094 36.992188 C 84.457031 37.605469 84.960938 38.515625 84.960938 39.785156 C 84.960938 41.050781 84.597656 41.875 83.875 42.667969 C 82.820313 43.828125 81.3125 43.828125 80.464844 43.828125 C 79.777344 43.828125 78.949219 43.792969 78.453125 43.792969 C 77.5 43.792969 77.058594 43.828125 76.910156 43.828125 L 76.828125 43.753906 L 76.828125 43.46875 L 76.917969 43.402344 L 77.652344 43.402344 L 78.003906 43.136719 C 78.039063 42.90625 78.082031 40.4375 78.082031 39.589844 Z M 79.089844 39.828125 C 79.089844 39.972656 79.097656 41.839844 79.109375 42.515625 L 79.292969 43.128906 C 79.472656 43.355469 79.90625 43.476563 80.457031 43.476563 C 81.574219 43.476563 82.480469 42.996094 83.03125 42.292969 C 83.492188 41.726563 83.835938 40.824219 83.835938 39.828125 C 83.835938 38.972656 83.457031 37.992188 82.933594 37.40625 C 82.359375 36.78125 81.394531 36.359375 80.179688 36.359375 L 79.304688 36.464844 L 79.097656 36.980469 C 79.089844 37.441406 79.089844 38.878906 79.089844 39.050781 L 79.089844 39.828125 "/>
</g>
<g clip-path="url(#clip6)" clip-rule="nonzero">
<path style=" stroke:none;fill-rule:nonzero;fill:rgb(11.372375%,25.489807%,39.215088%);fill-opacity:1;" d="M 88.144531 39.203125 L 88.097656 36.808594 C 88.078125 36.542969 87.964844 36.433594 87.554688 36.433594 L 86.914063 36.433594 L 86.832031 36.367188 L 86.832031 36.070313 L 86.90625 36.003906 C 87.039063 36.003906 87.59375 36.039063 88.613281 36.039063 C 89.589844 36.039063 89.941406 36.003906 90.09375 36.003906 L 90.167969 36.089844 L 90.167969 36.359375 L 90.085938 36.433594 L 89.566406 36.433594 L 89.183594 36.742188 L 89.148438 39.402344 L 89.148438 40.246094 L 89.183594 43.011719 C 89.183594 43.347656 89.34375 43.402344 89.695313 43.402344 L 90.148438 43.402344 L 90.234375 43.476563 L 90.234375 43.757813 L 90.136719 43.828125 C 90.007813 43.828125 89.566406 43.792969 88.613281 43.792969 C 87.578125 43.792969 87.105469 43.828125 86.980469 43.828125 L 86.898438 43.757813 L 86.898438 43.46875 L 86.980469 43.402344 L 87.59375 43.402344 L 88.089844 43.082031 C 88.109375 42.917969 88.144531 40.550781 88.144531 39.972656 L 88.144531 39.203125 "/>
</g>
<g clip-path="url(#clip7)" clip-rule="nonzero">
<path style=" stroke:none;fill-rule:nonzero;fill:rgb(11.372375%,25.489807%,39.215088%);fill-opacity:1;" d="M 95.230469 36.433594 L 94.953125 36.433594 C 94.605469 36.433594 93.65625 36.433594 93.222656 36.566406 C 92.730469 36.71875 92.398438 37.484375 92.25 37.835938 L 92.136719 37.894531 L 91.941406 37.835938 L 91.898438 37.746094 C 92.011719 37.351563 92.394531 35.9375 92.410156 35.820313 L 92.527344 35.640625 L 92.65625 35.6875 L 92.796875 35.789063 L 93.417969 35.972656 C 94.003906 35.996094 94.460938 36.039063 95.488281 36.039063 L 96.019531 36.039063 C 97.210938 36.039063 97.683594 35.996094 98.21875 35.972656 L 98.785156 35.820313 L 98.996094 35.6875 L 99.128906 35.640625 L 99.226563 35.820313 C 99.246094 35.953125 99.457031 37.308594 99.539063 37.792969 L 99.476563 37.878906 L 99.308594 37.929688 L 99.210938 37.851563 C 99.128906 37.640625 98.800781 36.796875 98.4375 36.621094 C 98.109375 36.457031 97.078125 36.433594 96.542969 36.433594 L 96.234375 36.433594 L 96.234375 39.554688 L 96.25 42.960938 L 96.617188 43.402344 L 97.308594 43.402344 L 97.421875 43.507813 L 97.421875 43.742188 L 97.308594 43.828125 C 97.203125 43.828125 96.847656 43.792969 95.777344 43.792969 C 94.722656 43.792969 94.265625 43.828125 94.109375 43.828125 L 94.015625 43.714844 L 94.015625 43.507813 L 94.089844 43.402344 L 94.835938 43.402344 L 95.191406 43.136719 L 95.230469 39.25 L 95.230469 36.433594 "/>
</g>
<g clip-path="url(#clip8)" clip-rule="nonzero">
<path style=" stroke:none;fill-rule:nonzero;fill:rgb(11.372375%,25.489807%,39.215088%);fill-opacity:1;" d="M 107.402344 43.730469 C 106.65625 43.433594 106.277344 42.945313 106.097656 42.261719 C 105.96875 41.769531 105.925781 41.035156 105.925781 39.601563 L 105.925781 36.992188 C 105.925781 36.609375 105.851563 36.429688 105.507813 36.429688 L 104.996094 36.429688 L 104.914063 36.335938 L 104.914063 36.09375 L 105.015625 36.003906 C 105.128906 36.003906 105.660156 36.039063 106.515625 36.039063 C 107.371094 36.039063 107.894531 36.003906 108.015625 36.003906 L 108.113281 36.070313 L 108.113281 36.363281 L 108.023438 36.429688 L 107.484375 36.429688 L 106.953125 36.886719 C 106.941406 36.980469 106.933594 37.746094 106.933594 38.308594 L 106.933594 39.03125 C 106.933594 39.617188 106.976563 41 106.984375 41.355469 C 106.992188 41.855469 107.085938 42.371094 107.339844 42.742188 C 107.738281 43.339844 108.445313 43.535156 109.078125 43.535156 C 109.703125 43.535156 110.339844 43.324219 110.71875 42.929688 C 111.152344 42.46875 111.289063 41.8125 111.289063 41 L 111.289063 38.660156 C 111.289063 37.828125 111.269531 37.1875 111.234375 36.914063 L 110.746094 36.429688 L 110.261719 36.429688 L 110.1875 36.34375 L 110.1875 36.089844 L 110.261719 36.003906 C 110.371094 36.003906 110.878906 36.039063 111.605469 36.039063 C 112.363281 36.039063 112.71875 36.003906 112.8125 36.003906 L 112.925781 36.089844 L 112.925781 36.328125 L 112.859375 36.429688 L 112.40625 36.429688 C 112.003906 36.429688 111.972656 36.742188 111.9375 36.871094 L 111.914063 38.691406 C 111.914063 38.84375 111.894531 40.761719 111.859375 41.183594 C 111.792969 42.085938 111.554688 42.777344 110.941406 43.304688 C 110.503906 43.707031 109.835938 43.960938 108.878906 43.960938 C 108.3125 43.960938 107.769531 43.882813 107.402344 43.730469 "/>
</g>
<g clip-path="url(#clip9)" clip-rule="nonzero">
<path style=" stroke:none;fill-rule:nonzero;fill:rgb(11.372375%,25.489807%,39.215088%);fill-opacity:1;" d="M 115.671875 37.464844 C 115.671875 36.816406 115.34375 36.457031 114.949219 36.441406 L 114.496094 36.429688 L 114.429688 36.359375 L 114.429688 36.074219 L 114.496094 36.003906 L 114.808594 36.019531 C 114.96875 36.027344 115.210938 36.039063 115.582031 36.039063 C 115.957031 36.039063 116.183594 36.019531 116.3125 36.019531 L 116.632813 36.160156 L 118.9375 39.140625 C 119.058594 39.296875 120.90625 41.5625 121.171875 41.910156 L 121.210938 41.910156 L 121.210938 40.605469 C 121.210938 39.632813 121.199219 39.097656 121.183594 38.550781 C 121.171875 38.121094 121.113281 37.046875 121.046875 36.859375 L 120.445313 36.429688 L 120.101563 36.429688 L 120.027344 36.359375 L 120.027344 36.074219 L 120.101563 36.003906 C 120.25 36.003906 120.597656 36.039063 121.300781 36.039063 C 121.953125 36.039063 122.21875 36.003906 122.363281 36.003906 L 122.449219 36.089844 L 122.449219 36.359375 L 122.386719 36.429688 L 122.089844 36.429688 C 121.792969 36.429688 121.683594 36.621094 121.660156 37.035156 C 121.617188 37.769531 121.617188 38.855469 121.617188 39.566406 L 121.617188 43.664063 L 121.5625 43.925781 L 121.300781 43.753906 C 121.289063 43.730469 120.640625 42.921875 119.964844 42.0625 C 119.199219 41.109375 118.398438 40.101563 118.335938 40.042969 L 116.132813 37.308594 L 116.0625 37.308594 L 116.0625 39.746094 C 116.0625 40.761719 116.152344 42.546875 116.175781 42.765625 C 116.21875 43.195313 116.285156 43.402344 116.574219 43.402344 L 116.910156 43.402344 L 116.996094 43.496094 L 116.996094 43.742188 L 116.910156 43.828125 L 115.847656 43.792969 L 114.746094 43.828125 L 114.691406 43.753906 L 114.691406 43.46875 L 114.765625 43.402344 L 115.132813 43.402344 C 115.449219 43.402344 115.570313 43.269531 115.628906 42.734375 C 115.652344 42.523438 115.671875 41.277344 115.671875 39.324219 L 115.671875 37.464844 "/>
</g>
<g clip-path="url(#clip10)" clip-rule="nonzero">
<path style=" stroke:none;fill-rule:nonzero;fill:rgb(11.372375%,25.489807%,39.215088%);fill-opacity:1;" d="M 125.625 39.203125 L 125.578125 36.808594 C 125.558594 36.542969 125.449219 36.433594 125.03125 36.433594 L 124.394531 36.433594 L 124.308594 36.367188 L 124.308594 36.070313 L 124.382813 36.003906 C 124.519531 36.003906 125.074219 36.039063 126.09375 36.039063 C 127.066406 36.039063 127.421875 36.003906 127.570313 36.003906 L 127.648438 36.089844 L 127.648438 36.359375 L 127.5625 36.433594 L 127.046875 36.433594 L 126.664063 36.742188 L 126.628906 39.402344 L 126.628906 40.246094 L 126.664063 43.011719 C 126.664063 43.347656 126.824219 43.402344 127.179688 43.402344 L 127.625 43.402344 L 127.714844 43.476563 L 127.714844 43.757813 L 127.617188 43.828125 C 127.484375 43.828125 127.046875 43.792969 126.09375 43.792969 C 125.054688 43.792969 124.585938 43.828125 124.460938 43.828125 L 124.375 43.757813 L 124.375 43.46875 L 124.460938 43.402344 L 125.074219 43.402344 L 125.566406 43.082031 C 125.59375 42.917969 125.625 40.550781 125.625 39.972656 L 125.625 39.203125 "/>
</g>
<g clip-path="url(#clip11)" clip-rule="nonzero">
<path style=" stroke:none;fill-rule:nonzero;fill:rgb(11.372375%,25.489807%,39.215088%);fill-opacity:1;" d="M 131.480469 43.246094 C 130.707031 42.773438 129.871094 41.59375 129.871094 39.992188 C 129.871094 39.324219 130.042969 38.285156 130.890625 37.265625 C 131.855469 36.09375 132.9375 35.875 133.855469 35.875 C 134.546875 35.875 135.449219 36.019531 136.3125 36.742188 C 137.113281 37.429688 137.816406 38.503906 137.816406 40.015625 C 137.816406 40.816406 137.558594 41.648438 136.988281 42.417969 C 136.324219 43.304688 135.34375 43.960938 133.835938 43.960938 C 133.296875 43.960938 132.347656 43.785156 131.480469 43.246094 M 136.738281 40.101563 C 136.738281 37.703125 135.03125 36.292969 133.8125 36.292969 C 133.648438 36.292969 132.90625 36.160156 132.082031 36.941406 C 131.351563 37.640625 130.992188 38.742188 130.992188 39.640625 C 130.992188 42.523438 132.992188 43.542969 133.925781 43.542969 C 136.335938 43.542969 136.738281 41.082031 136.738281 40.101563 "/>
</g>
<g clip-path="url(#clip12)" clip-rule="nonzero">
<path style=" stroke:none;fill-rule:nonzero;fill:rgb(11.372375%,25.489807%,39.215088%);fill-opacity:1;" d="M 141.003906 37.464844 C 141.003906 36.816406 140.679688 36.457031 140.285156 36.441406 L 139.835938 36.429688 L 139.773438 36.359375 L 139.773438 36.074219 L 139.835938 36.003906 L 140.140625 36.019531 C 140.308594 36.027344 140.546875 36.039063 140.921875 36.039063 C 141.289063 36.039063 141.523438 36.019531 141.65625 36.019531 L 141.96875 36.160156 L 144.269531 39.140625 C 144.390625 39.296875 146.238281 41.5625 146.507813 41.910156 L 146.554688 41.910156 L 146.554688 40.605469 C 146.554688 39.632813 146.535156 39.097656 146.515625 38.550781 C 146.507813 38.121094 146.449219 37.046875 146.382813 36.859375 L 145.78125 36.429688 L 145.433594 36.429688 L 145.367188 36.359375 L 145.367188 36.074219 L 145.433594 36.003906 C 145.585938 36.003906 145.9375 36.039063 146.636719 36.039063 C 147.296875 36.039063 147.558594 36.003906 147.699219 36.003906 L 147.789063 36.089844 L 147.789063 36.359375 L 147.71875 36.429688 L 147.425781 36.429688 C 147.128906 36.429688 147.023438 36.621094 147 37.035156 C 146.953125 37.769531 146.953125 38.855469 146.953125 39.566406 L 146.953125 43.664063 L 146.898438 43.925781 L 146.636719 43.753906 C 146.625 43.730469 145.980469 42.921875 145.300781 42.0625 C 144.53125 41.109375 143.734375 40.101563 143.671875 40.042969 L 141.46875 37.308594 L 141.402344 37.308594 L 141.402344 39.746094 C 141.402344 40.761719 141.488281 42.546875 141.515625 42.765625 C 141.554688 43.195313 141.617188 43.402344 141.914063 43.402344 L 142.246094 43.402344 L 142.332031 43.496094 L 142.332031 43.742188 L 142.246094 43.828125 L 141.183594 43.792969 L 140.085938 43.828125 L 140.03125 43.753906 L 140.03125 43.46875 L 140.101563 43.402344 L 140.472656 43.402344 C 140.789063 43.402344 140.910156 43.269531 140.964844 42.734375 C 140.988281 42.523438 141.003906 41.277344 141.003906 39.324219 L 141.003906 37.464844 "/>
</g>
<g clip-path="url(#clip13)" clip-rule="nonzero">
<path style=" stroke:none;fill-rule:evenodd;fill:rgb(98.431396%,69.018555%,19.999695%);fill-opacity:1;" d="M 0 43.828125 L 0 0.03125 L 43.828125 0 L 43.828125 43.828125 L 0 43.828125 "/>
</g>
<g clip-path="url(#clip14)" clip-rule="nonzero">
<path style=" stroke:none;fill-rule:evenodd;fill:rgb(100%,100%,100%);fill-opacity:1;" d="M 21.992188 43.625 C 20.820313 42.109375 20.078125 39.882813 20.441406 38.027344 C 21.15625 36.570313 21.0625 35.148438 20.386719 33.628906 L 23.945313 33.476563 C 24.21875 36.941406 20.292969 40.011719 21.992188 43.53125 L 21.992188 43.625 "/>
</g>
<g clip-path="url(#clip15)" clip-rule="nonzero">
<path style=" stroke:none;fill-rule:nonzero;fill:rgb(100%,100%,100%);fill-opacity:1;" d="M 21.992188 43.625 L 21.917969 43.683594 C 20.9375 42.417969 20.257813 40.667969 20.257813 39.035156 C 20.257813 38.683594 20.285156 38.34375 20.351563 38.007813 L 20.359375 37.984375 C 20.695313 37.308594 20.847656 36.644531 20.847656 35.972656 C 20.847656 35.222656 20.652344 34.457031 20.296875 33.671875 L 20.246094 33.542969 L 23.941406 33.386719 L 24.027344 33.382813 L 24.035156 33.472656 L 24.046875 33.835938 C 24.039063 36.589844 21.648438 39.066406 21.65625 41.675781 C 21.65625 42.269531 21.777344 42.871094 22.074219 43.488281 L 22.085938 43.507813 L 22.085938 43.898438 L 21.917969 43.683594 L 21.992188 43.625 L 21.902344 43.625 L 21.902344 43.53125 L 21.992188 43.53125 L 21.910156 43.570313 C 21.601563 42.925781 21.472656 42.296875 21.472656 41.675781 C 21.480469 38.960938 23.871094 36.488281 23.863281 33.835938 L 23.847656 33.484375 L 23.945313 33.476563 L 23.949219 33.570313 L 20.386719 33.726563 L 20.386719 33.628906 L 20.46875 33.59375 C 20.832031 34.402344 21.03125 35.191406 21.03125 35.972656 C 21.03125 36.671875 20.871094 37.371094 20.53125 38.0625 L 20.441406 38.027344 L 20.535156 38.046875 C 20.46875 38.359375 20.441406 38.695313 20.441406 39.035156 C 20.441406 40.613281 21.109375 42.328125 22.066406 43.5625 L 21.992188 43.625 L 21.902344 43.625 L 21.992188 43.625 "/>
</g>
<path style=" stroke:none;fill-rule:evenodd;fill:rgb(100%,100%,100%);fill-opacity:1;" d="M 9.28125 39.539063 C 9.125 37.683594 9.804688 35.179688 11.445313 34.070313 C 12.59375 33.355469 13.550781 31.839844 13.917969 30.292969 C 14.851563 31.226563 15.808594 31.871094 16.671875 32.367188 L 16.734375 32.519531 C 14.910156 35.398438 10.242188 35.457031 9.28125 39.539063 "/>
<path style=" stroke:none;fill-rule:nonzero;fill:rgb(100%,100%,100%);fill-opacity:1;" d="M 9.28125 39.539063 L 9.191406 39.550781 L 9.167969 39.007813 C 9.167969 37.210938 9.867188 35.027344 11.394531 33.992188 L 11.398438 33.992188 L 11.398438 33.988281 C 12.515625 33.296875 13.464844 31.796875 13.828125 30.273438 L 13.871094 30.109375 L 13.988281 30.230469 C 14.910156 31.148438 15.859375 31.792969 16.71875 32.285156 L 16.746094 32.300781 L 16.820313 32.484375 L 16.839844 32.53125 L 16.8125 32.566406 C 14.929688 35.496094 10.296875 35.554688 9.371094 39.5625 L 9.191406 39.550781 L 9.28125 39.539063 L 9.191406 39.515625 C 10.183594 35.367188 14.890625 35.300781 16.65625 32.46875 L 16.734375 32.519531 L 16.644531 32.554688 L 16.582031 32.402344 L 16.671875 32.367188 L 16.625 32.441406 C 15.753906 31.949219 14.789063 31.296875 13.855469 30.359375 L 13.917969 30.292969 L 14.015625 30.316406 C 13.632813 31.886719 12.671875 33.414063 11.5 34.152344 L 11.445313 34.070313 L 11.5 34.144531 C 10.050781 35.121094 9.347656 37.257813 9.351563 39.007813 L 9.375 39.53125 L 9.28125 39.539063 L 9.191406 39.515625 L 9.28125 39.539063 "/>
<path style=" stroke:none;fill-rule:evenodd;fill:rgb(100%,100%,100%);fill-opacity:1;" d="M 34.644531 39.480469 C 32.660156 38.761719 30.960938 37.78125 30.21875 35.738281 C 29.84375 34.15625 28.859375 33.078125 27.464844 32.304688 L 30.34375 30.105469 C 32.632813 32.925781 31.242188 37.496094 34.730469 39.355469 L 34.644531 39.480469 "/>
<path style=" stroke:none;fill-rule:nonzero;fill:rgb(100%,100%,100%);fill-opacity:1;" d="M 34.644531 39.480469 L 34.609375 39.566406 C 32.625 38.855469 30.886719 37.851563 30.128906 35.769531 L 30.128906 35.761719 L 30.125 35.757813 C 29.761719 34.210938 28.796875 33.15625 27.425781 32.382813 L 27.296875 32.320313 L 30.355469 29.980469 L 30.414063 30.046875 C 32.734375 32.9375 31.347656 37.476563 34.777344 39.269531 L 34.871094 39.324219 L 34.71875 39.53125 L 34.675781 39.589844 L 34.609375 39.566406 L 34.644531 39.480469 L 34.566406 39.417969 L 34.65625 39.300781 L 34.730469 39.355469 L 34.691406 39.441406 C 31.128906 37.519531 32.53125 32.910156 30.269531 30.167969 L 30.34375 30.105469 L 30.398438 30.179688 L 27.527344 32.375 L 27.464844 32.304688 L 27.515625 32.226563 C 28.917969 33.003906 29.929688 34.113281 30.308594 35.714844 L 30.21875 35.738281 L 30.304688 35.707031 C 31.035156 37.710938 32.699219 38.679688 34.671875 39.390625 L 34.644531 39.480469 L 34.566406 39.417969 L 34.644531 39.480469 "/>
<path style=" stroke:none;fill-rule:evenodd;fill:rgb(100%,100%,100%);fill-opacity:1;" d="M 27.3125 38.554688 L 24.25 33.476563 L 27 32.519531 "/>
<path style=" stroke:none;fill-rule:nonzero;fill:rgb(100%,100%,100%);fill-opacity:1;" d="M 27.3125 38.554688 L 27.230469 38.601563 L 24.109375 33.429688 L 26.96875 32.433594 L 27.089844 32.390625 L 27.40625 38.550781 L 27.230469 38.601563 L 27.3125 38.554688 L 27.222656 38.558594 L 26.914063 32.648438 L 24.390625 33.527344 L 27.394531 38.503906 L 27.3125 38.554688 L 27.222656 38.558594 L 27.3125 38.554688 "/>
<path style=" stroke:none;fill-rule:evenodd;fill:rgb(100%,100%,100%);fill-opacity:1;" d="M 16.550781 38.460938 L 17.074219 32.613281 L 19.761719 33.476563 "/>
<path style=" stroke:none;fill-rule:nonzero;fill:rgb(100%,100%,100%);fill-opacity:1;" d="M 16.550781 38.460938 L 16.457031 38.449219 L 16.996094 32.492188 L 19.792969 33.390625 L 19.90625 33.425781 L 16.625 38.507813 L 16.457031 38.449219 L 16.550781 38.460938 L 16.46875 38.40625 L 19.625 33.527344 L 17.15625 32.734375 L 16.640625 38.46875 L 16.550781 38.460938 L 16.46875 38.40625 L 16.550781 38.460938 "/>
<path style=" stroke:none;fill-rule:evenodd;fill:rgb(100%,100%,100%);fill-opacity:1;" d="M 36.035156 32.273438 C 34.144531 31.4375 31.792969 31.351563 30.40625 29.957031 L 28.363281 27.972656 C 25.582031 30.542969 21.21875 31.59375 17.726563 29.523438 C 15.53125 28.285156 13.703125 25.964844 13.429688 23.117188 C 12.898438 20.367188 14.261719 16.871094 16.550781 15.203125 C 18.53125 13.5625 21.433594 12.855469 23.785156 13.378906 C 25.488281 13.71875 27.222656 14.769531 28.300781 15.945313 L 30.464844 13.933594 C 31.519531 12.941406 33.339844 12.757813 34.761719 12.296875 L 35.972656 11.800781 L 36.035156 11.957031 L 32.105469 16.378906 L 32.226563 16.503906 C 35.597656 15.203125 39.34375 17.957031 42.558594 15.203125 C 41.722656 16.59375 40.671875 17.644531 38.847656 18.203125 C 37.023438 18.296875 34.519531 18.542969 33.21875 20.277344 L 39.34375 22.039063 L 33.496094 23.425781 C 37.054688 24.636719 38.347656 28.933594 42.621094 28.5625 C 41.511719 29.058594 40.363281 29.183594 39.1875 29.085938 C 36.746094 28.84375 34.703125 26.121094 32.167969 27.199219 L 32.105469 27.386719 L 36.035156 32.273438 "/>
<path style=" stroke:none;fill-rule:nonzero;fill:rgb(100%,100%,100%);fill-opacity:1;" d="M 36.035156 32.273438 L 35.996094 32.359375 C 34.132813 31.53125 31.769531 31.445313 30.339844 30.027344 L 30.40625 29.957031 L 30.34375 30.027344 L 28.300781 28.039063 L 28.363281 27.972656 L 28.429688 28.046875 C 26.644531 29.683594 24.226563 30.710938 21.789063 30.710938 C 20.386719 30.710938 18.96875 30.371094 17.675781 29.601563 L 17.726563 29.523438 L 17.675781 29.601563 C 15.457031 28.351563 13.613281 26.011719 13.335938 23.125 L 13.429688 23.117188 L 13.339844 23.132813 C 13.261719 22.726563 13.21875 22.308594 13.21875 21.878906 C 13.222656 19.359375 14.507813 16.578125 16.492188 15.125 L 16.550781 15.203125 L 16.488281 15.128906 C 18.054688 13.832031 20.183594 13.117188 22.175781 13.109375 C 22.734375 13.109375 23.285156 13.171875 23.808594 13.285156 L 23.785156 13.378906 L 23.808594 13.285156 C 25.53125 13.632813 27.273438 14.6875 28.367188 15.878906 L 28.300781 15.945313 L 28.234375 15.875 L 30.402344 13.867188 C 31.492188 12.847656 33.328125 12.671875 34.734375 12.210938 L 34.761719 12.296875 L 34.730469 12.214844 L 35.9375 11.714844 L 36.023438 11.679688 L 36.117188 11.917969 L 36.140625 11.976563 L 32.234375 16.375 L 32.292969 16.433594 L 32.226563 16.503906 L 32.191406 16.414063 C 32.929688 16.128906 33.683594 16.039063 34.433594 16.039063 C 35.917969 16.039063 37.40625 16.390625 38.851563 16.386719 C 40.117188 16.386719 41.339844 16.121094 42.496094 15.128906 L 42.640625 15.25 C 41.796875 16.65625 40.71875 17.730469 38.878906 18.289063 L 38.867188 18.296875 L 38.855469 18.296875 C 37.03125 18.386719 34.554688 18.640625 33.292969 20.332031 L 33.21875 20.277344 L 33.246094 20.183594 L 39.714844 22.042969 L 33.519531 23.519531 L 33.496094 23.425781 L 33.527344 23.34375 C 36.988281 24.535156 38.316406 28.507813 42.113281 28.492188 L 42.613281 28.472656 L 42.65625 28.652344 C 41.757813 29.046875 40.835938 29.210938 39.898438 29.210938 L 39.179688 29.179688 C 37.089844 28.957031 35.328125 27.03125 33.382813 27.042969 C 32.996094 27.042969 32.609375 27.113281 32.203125 27.285156 L 32.167969 27.199219 L 32.253906 27.230469 L 32.210938 27.367188 L 36.105469 32.21875 L 35.996094 32.359375 L 36.035156 32.273438 L 35.957031 32.332031 L 32.003906 27.40625 L 32.078125 27.175781 L 32.09375 27.128906 L 32.132813 27.117188 C 32.5625 26.933594 32.976563 26.859375 33.382813 26.859375 C 35.445313 26.867188 37.207031 28.804688 39.195313 28.996094 L 39.1875 29.085938 L 39.195313 28.996094 L 39.898438 29.023438 C 40.8125 29.023438 41.707031 28.867188 42.582031 28.476563 L 42.621094 28.5625 L 42.628906 28.65625 L 42.113281 28.679688 C 38.164063 28.664063 36.820313 24.636719 33.46875 23.515625 L 33.164063 23.414063 L 38.976563 22.03125 L 33.066406 20.328125 L 33.144531 20.21875 C 34.480469 18.445313 37.015625 18.203125 38.84375 18.109375 L 38.847656 18.203125 L 38.824219 18.113281 C 40.621094 17.5625 41.648438 16.535156 42.476563 15.152344 L 42.558594 15.203125 L 42.617188 15.273438 C 41.421875 16.300781 40.144531 16.574219 38.851563 16.574219 C 37.378906 16.574219 35.882813 16.222656 34.433594 16.222656 C 33.699219 16.222656 32.96875 16.3125 32.261719 16.589844 L 32.203125 16.609375 L 32.039063 16.441406 L 31.980469 16.382813 L 35.925781 11.9375 L 35.917969 11.917969 L 34.800781 12.382813 L 34.796875 12.382813 L 34.792969 12.386719 C 33.355469 12.847656 31.546875 13.039063 30.53125 14.003906 L 28.363281 16.011719 L 28.296875 16.074219 L 28.230469 16.007813 C 27.164063 14.847656 25.445313 13.804688 23.765625 13.46875 C 23.257813 13.355469 22.722656 13.300781 22.175781 13.300781 C 20.230469 13.300781 18.132813 14.007813 16.605469 15.273438 L 16.605469 15.277344 C 14.679688 16.683594 13.40625 19.421875 13.410156 21.878906 C 13.410156 22.296875 13.445313 22.707031 13.519531 23.101563 L 13.519531 23.109375 C 13.789063 25.921875 15.597656 28.214844 17.769531 29.441406 C 19.039063 30.191406 20.414063 30.527344 21.789063 30.527344 C 24.175781 30.527344 26.550781 29.515625 28.300781 27.902344 L 28.363281 27.84375 L 30.46875 29.886719 L 30.46875 29.890625 C 31.820313 31.246094 34.15625 31.351563 36.070313 32.1875 L 36.035156 32.273438 L 35.957031 32.332031 L 36.035156 32.273438 "/>
<path style=" stroke:none;fill-rule:evenodd;fill:rgb(100%,100%,100%);fill-opacity:1;" d="M 7.832031 32.148438 L 11.695313 27.667969 L 13.429688 29.863281 L 13.363281 30.046875 "/>
<path style=" stroke:none;fill-rule:nonzero;fill:rgb(100%,100%,100%);fill-opacity:1;" d="M 7.832031 32.148438 L 7.761719 32.085938 L 11.695313 27.515625 L 13.496094 29.804688 L 13.527344 29.84375 L 13.453125 30.074219 L 13.441406 30.121094 L 7.859375 32.238281 L 7.761719 32.085938 L 7.832031 32.148438 L 7.796875 32.0625 L 13.289063 29.972656 L 13.324219 29.878906 L 11.695313 27.8125 L 7.898438 32.210938 L 7.832031 32.148438 L 7.796875 32.0625 L 7.832031 32.148438 "/>
<path style=" stroke:none;fill-rule:evenodd;fill:rgb(100%,100%,100%);fill-opacity:1;" d="M 1.304688 28.746094 C 2.292969 27.234375 3.875 25.835938 5.976563 25.558594 C 7.488281 25.75 9.34375 25.097656 10.394531 23.925781 C 10.582031 24.976563 10.980469 26.089844 11.597656 27.386719 C 8.355469 28.746094 4.582031 25.964844 1.304688 28.746094 "/>
<path style=" stroke:none;fill-rule:nonzero;fill:rgb(100%,100%,100%);fill-opacity:1;" d="M 1.304688 28.746094 L 1.226563 28.695313 C 2.222656 27.164063 3.824219 25.753906 5.964844 25.46875 L 5.984375 25.46875 L 6.503906 25.503906 C 7.871094 25.503906 9.417969 24.878906 10.324219 23.859375 L 10.453125 23.71875 L 10.488281 23.90625 C 10.667969 24.941406 11.070313 26.050781 11.683594 27.351563 L 11.722656 27.433594 L 11.636719 27.472656 C 10.902344 27.78125 10.148438 27.875 9.375 27.875 C 7.957031 27.875 6.496094 27.542969 5.078125 27.546875 C 3.796875 27.546875 2.554688 27.8125 1.367188 28.816406 L 1.226563 28.695313 L 1.304688 28.746094 L 1.242188 28.675781 C 2.46875 27.632813 3.773438 27.359375 5.078125 27.359375 C 6.523438 27.363281 7.984375 27.691406 9.375 27.691406 C 10.128906 27.691406 10.859375 27.597656 11.566406 27.300781 L 11.597656 27.386719 L 11.515625 27.433594 C 10.898438 26.125 10.492188 25.003906 10.300781 23.9375 L 10.394531 23.925781 L 10.464844 23.984375 C 9.507813 25.058594 7.925781 25.683594 6.503906 25.683594 L 5.964844 25.652344 L 5.976563 25.558594 L 5.988281 25.652344 C 3.921875 25.929688 2.363281 27.300781 1.382813 28.800781 L 1.304688 28.746094 L 1.242188 28.675781 L 1.304688 28.746094 "/>
<path style=" stroke:none;fill-rule:evenodd;fill:rgb(100%,100%,100%);fill-opacity:1;" d="M 10.335938 23.519531 L 4.613281 21.914063 L 10.363281 20.585938 C 10.210938 21.699219 10.210938 22.621094 10.335938 23.519531 "/>
<path style=" stroke:none;fill-rule:nonzero;fill:rgb(100%,100%,100%);fill-opacity:1;" d="M 10.335938 23.519531 L 10.304688 23.609375 L 4.585938 22 L 4.589844 21.824219 L 10.472656 20.464844 L 10.457031 20.597656 C 10.378906 21.179688 10.339844 21.710938 10.339844 22.214844 C 10.339844 22.664063 10.367188 23.089844 10.425781 23.507813 L 10.445313 23.652344 L 10.304688 23.609375 L 10.335938 23.519531 L 10.242188 23.535156 C 10.183594 23.109375 10.15625 22.671875 10.15625 22.214844 C 10.15625 21.703125 10.195313 21.164063 10.273438 20.570313 L 10.363281 20.585938 L 10.382813 20.675781 L 4.988281 21.921875 L 10.359375 23.429688 L 10.335938 23.519531 L 10.242188 23.535156 L 10.335938 23.519531 "/>
<path style=" stroke:none;fill-rule:evenodd;fill:rgb(100%,100%,100%);fill-opacity:1;" d="M 10.363281 20.242188 C 6.714844 19.097656 5.601563 15.050781 1.335938 15.328125 C 3.1875 14.613281 5.261719 14.429688 7.152344 15.632813 C 8.289063 16.625 10.027344 16.996094 11.445313 16.839844 C 11.046875 17.554688 10.671875 18.632813 10.363281 20.242188 "/>
<path style=" stroke:none;fill-rule:nonzero;fill:rgb(100%,100%,100%);fill-opacity:1;" d="M 10.363281 20.242188 L 10.339844 20.332031 C 6.753906 19.191406 5.605469 15.390625 1.746094 15.40625 L 1.335938 15.421875 L 1.300781 15.238281 C 2.207031 14.890625 3.167969 14.667969 4.136719 14.667969 C 5.167969 14.667969 6.207031 14.925781 7.199219 15.554688 L 7.210938 15.566406 C 8.160156 16.390625 9.550781 16.785156 10.808594 16.785156 L 11.4375 16.75 L 11.617188 16.730469 L 11.527344 16.886719 C 11.132813 17.582031 10.765625 18.660156 10.457031 20.257813 L 10.433594 20.367188 L 10.339844 20.332031 L 10.363281 20.242188 L 10.273438 20.222656 C 10.585938 18.609375 10.957031 17.523438 11.367188 16.796875 L 11.445313 16.839844 L 11.457031 16.933594 L 10.808594 16.96875 C 9.515625 16.96875 8.085938 16.570313 7.089844 15.703125 L 7.152344 15.632813 L 7.101563 15.714844 C 6.140625 15.101563 5.136719 14.855469 4.136719 14.855469 C 3.195313 14.855469 2.257813 15.074219 1.367188 15.414063 L 1.335938 15.328125 L 1.328125 15.234375 L 1.746094 15.222656 C 5.75 15.234375 6.917969 19.082031 10.390625 20.152344 L 10.363281 20.242188 L 10.273438 20.222656 L 10.363281 20.242188 "/>
<path style=" stroke:none;fill-rule:evenodd;fill:rgb(100%,100%,100%);fill-opacity:1;" d="M 11.695313 16.410156 L 8.011719 11.773438 L 13.367188 13.996094 C 12.65625 14.890625 12.097656 15.695313 11.695313 16.410156 "/>
<path style=" stroke:none;fill-rule:nonzero;fill:rgb(100%,100%,100%);fill-opacity:1;" d="M 11.695313 16.410156 L 11.621094 16.464844 L 7.714844 11.546875 L 13.515625 13.960938 L 13.441406 14.054688 C 12.726563 14.949219 12.175781 15.746094 11.777344 16.457031 L 11.707031 16.570313 L 11.621094 16.464844 L 11.695313 16.410156 L 11.613281 16.359375 C 12.019531 15.644531 12.578125 14.839844 13.292969 13.933594 L 13.367188 13.996094 L 13.332031 14.082031 L 8.3125 11.996094 L 11.769531 16.351563 L 11.695313 16.410156 L 11.613281 16.359375 L 11.695313 16.410156 "/>
<path style=" stroke:none;fill-rule:evenodd;fill:rgb(100%,100%,100%);fill-opacity:1;" d="M 13.582031 13.78125 C 11.355469 10.996094 12.6875 6.386719 9.25 4.5625 C 10.890625 4.8125 12.34375 5.894531 13.210938 7.128906 C 14.015625 9.046875 14.761719 10.871094 16.582031 11.707031 C 15.585938 12.140625 14.632813 12.820313 13.582031 13.78125 "/>
<path style=" stroke:none;fill-rule:nonzero;fill:rgb(100%,100%,100%);fill-opacity:1;" d="M 13.582031 13.78125 L 13.507813 13.839844 C 11.253906 10.988281 12.574219 6.410156 9.207031 4.644531 L 9.265625 4.472656 C 10.933594 4.722656 12.40625 5.820313 13.289063 7.078125 L 13.292969 7.085938 L 13.296875 7.097656 C 14.101563 9.015625 14.835938 10.808594 16.617188 11.621094 L 16.8125 11.707031 L 16.617188 11.789063 C 15.640625 12.222656 14.6875 12.894531 13.644531 13.851563 L 13.574219 13.914063 L 13.507813 13.839844 L 13.582031 13.78125 L 13.515625 13.710938 C 14.574219 12.746094 15.539063 12.066406 16.546875 11.621094 L 16.582031 11.707031 L 16.546875 11.789063 C 14.675781 10.9375 13.925781 9.078125 13.125 7.167969 L 13.210938 7.128906 L 13.136719 7.183594 C 12.28125 5.964844 10.84375 4.898438 9.238281 4.65625 L 9.25 4.5625 L 9.292969 4.480469 C 12.796875 6.367188 11.453125 11.007813 13.652344 13.722656 L 13.582031 13.78125 L 13.515625 13.710938 L 13.582031 13.78125 "/>
<path style=" stroke:none;fill-rule:evenodd;fill:rgb(100%,100%,100%);fill-opacity:1;" d="M 30.09375 13.5625 C 29.449219 12.671875 28.394531 12.019531 27.222656 11.519531 C 28.859375 8.464844 33.777344 8.488281 34.703125 4.441406 C 34.824219 6.234375 34.175781 8.707031 32.539063 9.789063 C 31.394531 10.53125 30.433594 11.953125 30.09375 13.5625 "/>
<path style=" stroke:none;fill-rule:nonzero;fill:rgb(100%,100%,100%);fill-opacity:1;" d="M 30.09375 13.5625 L 30.019531 13.617188 C 29.382813 12.746094 28.351563 12.097656 27.179688 11.609375 L 27.089844 11.566406 L 27.136719 11.476563 C 28.84375 8.355469 33.71875 8.394531 34.613281 4.421875 L 34.796875 4.433594 L 34.8125 4.871094 C 34.8125 6.636719 34.144531 8.839844 32.589844 9.871094 C 31.46875 10.589844 30.519531 11.996094 30.191406 13.582031 L 30.144531 13.785156 L 30.019531 13.617188 L 30.09375 13.5625 L 30.007813 13.542969 C 30.347656 11.910156 31.316406 10.46875 32.488281 9.710938 L 32.539063 9.789063 L 32.488281 9.710938 C 33.960938 8.746094 34.628906 6.589844 34.625 4.871094 L 34.609375 4.449219 L 34.703125 4.441406 L 34.796875 4.464844 C 33.824219 8.585938 28.878906 8.5625 27.304688 11.566406 L 27.222656 11.519531 L 27.257813 11.4375 C 28.441406 11.9375 29.503906 12.59375 30.167969 13.507813 L 30.09375 13.5625 L 30.007813 13.542969 L 30.09375 13.5625 "/>
<path style=" stroke:none;fill-rule:evenodd;fill:rgb(100%,100%,100%);fill-opacity:1;" d="M 16.984375 11.460938 L 16.671875 5.460938 L 19.671875 10.441406 C 18.652344 10.8125 17.816406 11.15625 16.984375 11.460938 "/>
<path style=" stroke:none;fill-rule:nonzero;fill:rgb(100%,100%,100%);fill-opacity:1;" d="M 16.984375 11.460938 L 16.890625 11.464844 L 16.582031 5.46875 L 16.757813 5.414063 L 19.8125 10.492188 L 19.707031 10.53125 C 18.6875 10.898438 17.851563 11.238281 17.015625 11.546875 L 16.898438 11.59375 L 16.890625 11.464844 L 16.984375 11.460938 L 16.953125 11.371094 C 17.78125 11.066406 18.621094 10.722656 19.644531 10.351563 L 19.671875 10.441406 L 19.59375 10.488281 L 16.785156 5.828125 L 17.074219 11.457031 L 16.984375 11.460938 L 16.953125 11.371094 L 16.984375 11.460938 "/>
<path style=" stroke:none;fill-rule:evenodd;fill:rgb(100%,100%,100%);fill-opacity:1;" d="M 26.96875 11.433594 C 25.828125 10.777344 25.859375 10.777344 24.160156 10.46875 L 27.34375 5.582031 L 26.96875 11.433594 "/>
<path style=" stroke:none;fill-rule:nonzero;fill:rgb(100%,100%,100%);fill-opacity:1;" d="M 26.96875 11.433594 L 26.925781 11.511719 C 25.78125 10.863281 25.847656 10.878906 24.144531 10.5625 L 24.003906 10.535156 L 27.460938 5.234375 L 27.058594 11.585938 L 26.925781 11.511719 L 26.96875 11.433594 L 26.875 11.425781 L 27.230469 5.929688 L 24.238281 10.515625 L 24.160156 10.46875 L 24.175781 10.375 C 25.871094 10.683594 25.882813 10.699219 27.015625 11.347656 L 26.96875 11.433594 L 26.875 11.425781 L 26.96875 11.433594 "/>
<path style=" stroke:none;fill-rule:evenodd;fill:rgb(100%,100%,100%);fill-opacity:1;" d="M 19.953125 10.46875 C 19.828125 7.003906 23.597656 4.007813 21.960938 0.421875 C 23.230469 1.84375 23.941406 4.070313 23.386719 5.925781 C 22.730469 7.375 23.105469 8.898438 23.472656 10.347656 C 22.308594 10.191406 21.128906 10.222656 19.953125 10.46875 "/>
<path style=" stroke:none;fill-rule:nonzero;fill:rgb(100%,100%,100%);fill-opacity:1;" d="M 19.953125 10.46875 L 19.855469 10.476563 L 19.855469 10.300781 C 19.867188 7.472656 22.289063 4.984375 22.28125 2.292969 C 22.28125 1.699219 22.167969 1.089844 21.878906 0.457031 L 22.03125 0.359375 C 23.011719 1.460938 23.667969 3.039063 23.667969 4.574219 C 23.667969 5.042969 23.605469 5.507813 23.472656 5.953125 L 23.46875 5.957031 L 23.46875 5.964844 C 23.21875 6.53125 23.121094 7.097656 23.121094 7.675781 C 23.121094 8.558594 23.34375 9.449219 23.566406 10.328125 L 23.597656 10.460938 L 23.464844 10.441406 C 22.992188 10.375 22.523438 10.347656 22.050781 10.347656 C 21.359375 10.347656 20.664063 10.417969 19.972656 10.5625 L 19.863281 10.582031 L 19.855469 10.476563 L 19.953125 10.46875 L 19.933594 10.378906 C 20.636719 10.230469 21.34375 10.15625 22.050781 10.15625 C 22.53125 10.15625 23.011719 10.191406 23.492188 10.253906 L 23.472656 10.347656 L 23.386719 10.371094 C 23.164063 9.496094 22.9375 8.585938 22.9375 7.675781 C 22.9375 7.078125 23.035156 6.480469 23.300781 5.890625 L 23.386719 5.925781 L 23.296875 5.898438 C 23.421875 5.472656 23.480469 5.023438 23.480469 4.574219 C 23.480469 3.089844 22.847656 1.550781 21.890625 0.484375 L 21.960938 0.421875 L 22.046875 0.382813 C 22.34375 1.035156 22.46875 1.671875 22.46875 2.292969 C 22.460938 5.089844 20.03125 7.578125 20.042969 10.300781 L 20.042969 10.464844 L 19.953125 10.46875 L 19.933594 10.378906 L 19.953125 10.46875 "/>
</g>
</svg>
