<?xml version="1.0" encoding="utf-8"?>
<!-- Generator: Adobe Illustrator 22.1.0, SVG Export Plug-In . SVG Version: 6.00 Build 0)  -->
<svg version="1.1" id="Layer_1" xmlns="http://www.w3.org/2000/svg" xmlns:xlink="http://www.w3.org/1999/xlink" x="0px" y="0px"
	 viewBox="0 0 864 288" style="enable-background:new 0 0 864 288;" xml:space="preserve">
<style type="text/css">
	.st0{fill:#CC0000;}
	.st1{fill:#002E6D;}
</style>
<g>
	<polygon class="st0" points="277.2,232 102,232 100.4,232 100.4,230.4 100.4,206.9 85.3,206.9 85.3,247.1 277.2,247.1 	"/>
	<polygon class="st1" points="85.6,80.6 100.6,80.6 100.6,57.1 100.6,55.4 102.3,55.4 275.7,55.4 277.3,55.4 277.3,57.1 277.3,80.6 
		292.4,80.6 292.4,40.4 85.6,40.4 	"/>
	<path class="st1" d="M73.5,162.3c0.1,5.2,2.6,15.2,19.1,15.2c8.9,0,18.9-2.2,18.9-12.2c0-7.3-6.8-9.3-16.4-11.6l-9.7-2.4
		c-14.6-3.5-28.7-6.9-28.7-27.6c0-10.5,5.4-28.9,34.8-28.9c27.7,0,35.1,18.8,35.3,30.3h-18.1c-0.5-4.2-2-14.1-18.5-14.1
		c-7.2,0-15.7,2.7-15.7,11.2c0,7.3,5.8,8.9,9.6,9.8l22,5.6c12.3,3.1,23.7,8.4,23.7,25.2c0,28.3-27.7,30.7-35.6,30.7
		c-33,0-38.7-19.7-38.7-31.4h18V162.3z"/>
	<path class="st1" d="M153.6,97.3h45.7c23,0,28.9,14.4,28.9,24.1c0,13.5-7.6,17.3-11.5,19.2c11.5,4.3,14.5,13.5,14.5,22.8
		c0,7.5-3.1,14.5-8.1,19.4c-5.4,5.2-10.5,8.5-29.7,8.5h-39.8L153.6,97.3L153.6,97.3z M172.4,134h23c7.7,0,13.9-3,13.9-10.5
		c0-7.7-5.5-10.1-14.4-10.1h-22.5V134z M172.4,175h24.1c9.6,0,15-4.2,15-13.7c0-8.2-7.1-11.4-14.1-11.4h-25V175z"/>
	<polygon class="st1" points="292.2,97.2 277.3,97.2 247.5,191.2 266.3,191.2 284.6,129.5 303.2,191.2 322,191.2 	"/>
	<polygon class="st1" points="292.1,232 277.2,247.1 277.2,191.4 292.1,191.4 	"/>
	<g>
		<path class="st1" d="M376,97.1h4.4v20.4c0,2.1,0.2,3.8,0.6,5.2c0.4,1.4,1,2.5,1.7,3.4c0.7,0.8,1.6,1.4,2.6,1.8s2,0.6,3.2,0.6
			s2.2-0.2,3.2-0.6s1.8-1,2.6-1.8c0.7-0.8,1.3-2,1.7-3.4c0.4-1.4,0.6-3.1,0.6-5.2V97.1h4.2v20.3c0,2.8-0.3,5.1-0.9,7
			s-1.5,3.4-2.6,4.6c-1.1,1.2-2.4,2-3.9,2.5s-3.1,0.8-4.9,0.8s-3.4-0.3-4.9-0.8s-2.8-1.4-3.9-2.5c-1.1-1.2-2-2.7-2.6-4.6
			s-0.9-4.2-0.9-7V97.1H376z"/>
		<path class="st1" d="M404,129c0-1,0.3-1.8,0.9-2.4s1.4-0.9,2.2-0.9c0.8,0,1.6,0.3,2.2,0.9s0.9,1.4,0.9,2.4c0,0.9-0.3,1.7-0.9,2.3
			s-1.3,0.9-2.2,0.9c-0.9,0-1.6-0.3-2.2-0.9C404.3,130.7,404,129.9,404,129z"/>
		<path class="st1" d="M417.7,124.1c1.2,1.3,2.7,2.3,4.3,3.1c1.7,0.8,3.4,1.2,5.2,1.2c2.3,0,4.1-0.5,5.3-1.6c1.3-1,1.9-2.4,1.9-4.1
			c0-0.9-0.1-1.6-0.4-2.2s-0.7-1.1-1.2-1.6c-0.5-0.4-1.1-0.8-1.8-1.2c-0.7-0.3-1.5-0.7-2.3-1.1l-4.9-2.2c-0.8-0.4-1.6-0.8-2.5-1.3
			c-0.8-0.5-1.6-1.1-2.3-1.8c-0.7-0.7-1.2-1.5-1.6-2.5s-0.6-2.1-0.6-3.3c0-1.3,0.3-2.5,0.8-3.6s1.3-2.1,2.3-2.9s2.1-1.5,3.4-1.9
			c1.3-0.5,2.8-0.7,4.3-0.7c2.1,0,4,0.4,5.7,1.2c1.8,0.8,3.2,1.8,4.5,3.1l-2.4,2.8c-1.1-1-2.2-1.8-3.5-2.4s-2.7-0.9-4.3-0.9
			c-1.9,0-3.5,0.4-4.7,1.3s-1.8,2.1-1.8,3.7c0,0.8,0.2,1.6,0.5,2.1c0.3,0.6,0.8,1.1,1.3,1.5c0.6,0.4,1.2,0.8,1.8,1.2
			c0.7,0.3,1.4,0.6,2.1,0.9l4.9,2.1c1,0.4,1.9,0.9,2.8,1.4s1.6,1.2,2.3,1.9c0.6,0.7,1.1,1.6,1.5,2.5c0.4,1,0.6,2.1,0.6,3.3
			c0,1.4-0.3,2.7-0.8,3.8c-0.5,1.2-1.3,2.2-2.3,3.1s-2.2,1.6-3.7,2.1c-1.4,0.5-3.1,0.8-4.9,0.8c-2.4,0-4.7-0.5-6.7-1.4
			c-2.1-0.9-3.9-2.2-5.4-3.7L417.7,124.1z"/>
		<path class="st1" d="M443.6,129c0-1,0.3-1.8,0.9-2.4s1.4-0.9,2.2-0.9c0.8,0,1.6,0.3,2.2,0.9s0.9,1.4,0.9,2.4
			c0,0.9-0.3,1.7-0.9,2.3s-1.3,0.9-2.2,0.9c-0.9,0-1.6-0.3-2.2-0.9C443.9,130.7,443.6,129.9,443.6,129z"/>
		<path class="st1" d="M470.3,124.1c1.2,1.3,2.7,2.3,4.3,3.1c1.7,0.8,3.4,1.2,5.2,1.2c2.3,0,4.1-0.5,5.3-1.6c1.3-1,1.9-2.4,1.9-4.1
			c0-0.9-0.1-1.6-0.4-2.2s-0.7-1.1-1.2-1.6c-0.5-0.4-1.1-0.8-1.8-1.2c-0.7-0.3-1.5-0.7-2.3-1.1l-4.9-2.2c-0.8-0.4-1.6-0.8-2.5-1.3
			c-0.8-0.5-1.6-1.1-2.3-1.8c-0.7-0.7-1.2-1.5-1.6-2.5s-0.6-2.1-0.6-3.3c0-1.3,0.3-2.5,0.8-3.6s1.3-2.1,2.3-2.9s2.1-1.5,3.4-1.9
			c1.3-0.5,2.8-0.7,4.3-0.7c2.1,0,4,0.4,5.7,1.2c1.8,0.8,3.2,1.8,4.5,3.1l-2.4,2.8c-1.1-1-2.2-1.8-3.5-2.4s-2.7-0.9-4.3-0.9
			c-1.9,0-3.5,0.4-4.7,1.3s-1.8,2.1-1.8,3.7c0,0.8,0.2,1.6,0.5,2.1c0.3,0.6,0.8,1.1,1.3,1.5c0.6,0.4,1.2,0.8,1.8,1.2
			c0.7,0.3,1.4,0.6,2.1,0.9l4.9,2.1c1,0.4,1.9,0.9,2.8,1.4s1.6,1.2,2.3,1.9c0.6,0.7,1.1,1.6,1.5,2.5c0.4,1,0.6,2.1,0.6,3.3
			c0,1.4-0.3,2.7-0.8,3.8c-0.5,1.2-1.3,2.2-2.3,3.1s-2.2,1.6-3.7,2.1c-1.4,0.5-3.1,0.8-4.9,0.8c-2.4,0-4.7-0.5-6.7-1.4
			c-2.1-0.9-3.9-2.2-5.4-3.7L470.3,124.1z"/>
		<path class="st1" d="M499.3,106h3.6l0.4,3.7h0.2c1.1-1.2,2.3-2.3,3.7-3.1c1.3-0.8,2.7-1.2,4.3-1.2c2,0,3.5,0.4,4.6,1.3
			s1.9,2.1,2.4,3.6c1.3-1.5,2.7-2.7,4-3.6s2.8-1.3,4.4-1.3c2.6,0,4.6,0.8,5.9,2.5c1.3,1.7,1.9,4.2,1.9,7.5v16.2h-4.3V116
			c0-2.4-0.4-4.2-1.2-5.2c-0.8-1.1-2-1.6-3.6-1.6c-1.9,0-4.1,1.3-6.4,3.9v18.5h-4.3V116c0-2.4-0.4-4.2-1.2-5.2
			c-0.8-1.1-2-1.6-3.6-1.6c-1.9,0-4.1,1.3-6.4,3.9v18.5h-4.3V106H499.3z"/>
		<path class="st1" d="M541.9,125c0-2.8,1.3-5,3.8-6.4c2.5-1.5,6.5-2.5,12-3.1c0-0.8-0.1-1.6-0.2-2.4c-0.2-0.8-0.4-1.5-0.8-2.1
			c-0.4-0.6-0.9-1.1-1.6-1.4c-0.7-0.4-1.5-0.6-2.6-0.6c-1.5,0-2.9,0.3-4.2,0.8c-1.3,0.6-2.4,1.2-3.4,1.9l-1.7-3
			c1.2-0.8,2.7-1.5,4.4-2.2s3.6-1.1,5.7-1.1c3.1,0,5.4,1,6.8,2.9c1.4,1.9,2.1,4.5,2.1,7.7v15.7h-3.6l-0.4-3.1h-0.1
			c-1.2,1-2.6,1.9-4,2.6c-1.4,0.7-2.9,1.1-4.5,1.1c-2.2,0-4-0.6-5.4-1.9C542.6,129.1,541.9,127.3,541.9,125z M546.2,124.6
			c0,1.5,0.4,2.5,1.3,3.2c0.9,0.6,1.9,0.9,3.2,0.9c1.2,0,2.4-0.3,3.5-0.9s2.3-1.4,3.5-2.6v-7.1c-2.1,0.3-3.9,0.6-5.4,1
			s-2.7,0.8-3.6,1.4c-0.9,0.5-1.5,1.1-1.9,1.8C546.4,123.1,546.2,123.8,546.2,124.6z"/>
		<path class="st1" d="M571.4,94.1h4.3v32.6c0,0.7,0.1,1.2,0.4,1.5c0.2,0.3,0.5,0.4,0.8,0.4c0.1,0,0.3,0,0.4,0c0.1,0,0.3,0,0.6-0.1
			l0.6,3.3c-0.3,0.1-0.6,0.2-1,0.3s-0.9,0.1-1.5,0.1c-1.6,0-2.8-0.5-3.5-1.5s-1.1-2.4-1.1-4.3V94.1z"/>
		<path class="st1" d="M586.2,94.1h4.3v32.6c0,0.7,0.1,1.2,0.4,1.5c0.2,0.3,0.5,0.4,0.8,0.4c0.1,0,0.3,0,0.4,0c0.1,0,0.3,0,0.6-0.1
			l0.6,3.3c-0.3,0.1-0.6,0.2-1,0.3s-0.9,0.1-1.5,0.1c-1.6,0-2.8-0.5-3.5-1.5s-1.1-2.4-1.1-4.3V94.1z"/>
		<path class="st1" d="M613.3,97.1h10.3c1.8,0,3.4,0.2,4.8,0.5c1.5,0.3,2.7,0.8,3.7,1.5s1.8,1.5,2.4,2.6c0.6,1.1,0.9,2.4,0.9,3.9
			c0,1.7-0.5,3.3-1.5,4.7c-1,1.4-2.5,2.3-4.5,2.9v0.2c2.5,0.4,4.5,1.3,5.9,2.6c1.4,1.4,2.1,3.2,2.1,5.6c0,1.7-0.3,3.2-0.9,4.4
			c-0.6,1.3-1.5,2.3-2.7,3.2c-1.2,0.8-2.5,1.5-4.2,1.9c-1.6,0.4-3.4,0.6-5.3,0.6h-11V97.1z M622.8,111.8c3,0,5.1-0.5,6.4-1.5
			c1.3-1,1.9-2.5,1.9-4.4s-0.7-3.3-2-4.1c-1.4-0.8-3.4-1.2-6.1-1.2h-5.3v11.3h5.1V111.8z M623.6,128.1c3,0,5.3-0.6,6.9-1.7
			c1.6-1.1,2.5-2.8,2.5-5.2c0-2.1-0.8-3.7-2.4-4.7c-1.6-1-3.9-1.5-7-1.5h-6v13.1L623.6,128.1L623.6,128.1z"/>
		<path class="st1" d="M643.7,106h4.4v15.6c0,2.4,0.4,4.2,1.1,5.2c0.8,1.1,2,1.6,3.7,1.6c1.3,0,2.5-0.3,3.5-1s2.1-1.8,3.4-3.3V106
			h4.3v25.6h-3.6l-0.4-4H660c-1.2,1.4-2.4,2.5-3.8,3.4c-1.3,0.8-2.9,1.3-4.7,1.3c-2.7,0-4.7-0.8-6-2.5c-1.2-1.7-1.9-4.2-1.9-7.5V106
			H643.7z"/>
		<path class="st1" d="M673.3,125.8c1.1,0.9,2.3,1.7,3.4,2.2c1.2,0.6,2.5,0.8,4.1,0.8c1.7,0,2.9-0.4,3.8-1.2s1.3-1.7,1.3-2.8
			c0-0.7-0.2-1.2-0.5-1.7c-0.4-0.5-0.8-0.9-1.3-1.3s-1.2-0.7-1.9-1s-1.4-0.6-2.1-0.8c-0.9-0.3-1.8-0.7-2.7-1.1s-1.7-0.9-2.4-1.5
			s-1.3-1.3-1.8-2c-0.5-0.8-0.7-1.7-0.7-2.8c0-1,0.2-2,0.6-2.9c0.4-0.9,1-1.7,1.7-2.3c0.8-0.6,1.7-1.2,2.8-1.5s2.3-0.6,3.7-0.6
			c1.6,0,3.1,0.3,4.4,0.8c1.4,0.6,2.5,1.2,3.5,2.1l-2.1,2.7c-0.9-0.7-1.8-1.2-2.7-1.6s-2-0.6-3.1-0.6c-1.6,0-2.8,0.4-3.6,1.1
			s-1.1,1.6-1.1,2.6c0,0.6,0.2,1.1,0.5,1.6c0.3,0.4,0.7,0.8,1.3,1.2c0.5,0.3,1.1,0.6,1.8,0.9s1.4,0.5,2.1,0.8
			c0.9,0.4,1.8,0.7,2.8,1.1c0.9,0.4,1.8,0.9,2.5,1.4c0.7,0.6,1.3,1.3,1.8,2.1c0.5,0.8,0.7,1.9,0.7,3.1c0,1.1-0.2,2-0.6,2.9
			c-0.4,0.9-1,1.7-1.8,2.4s-1.8,1.3-2.9,1.7c-1.2,0.4-2.5,0.6-4,0.6c-1.8,0-3.6-0.3-5.2-1c-1.7-0.7-3.1-1.5-4.3-2.5L673.3,125.8z"/>
		<path class="st1" d="M699.6,100.7c-0.8,0-1.6-0.3-2.1-0.8c-0.6-0.5-0.9-1.2-0.9-2s0.3-1.5,0.9-2c0.6-0.5,1.3-0.8,2.1-0.8
			s1.6,0.3,2.1,0.8c0.6,0.5,0.9,1.2,0.9,2s-0.3,1.5-0.9,2C701.2,100.5,700.5,100.7,699.6,100.7z M697.4,106h4.3v25.6h-4.3V106z"/>
		<path class="st1" d="M711.7,106h3.6l0.4,3.7h0.2c1.2-1.2,2.5-2.3,3.9-3.1c1.3-0.8,2.9-1.2,4.7-1.2c2.7,0,4.7,0.8,5.9,2.5
			s1.9,4.2,1.9,7.5v16.2H728V116c0-2.4-0.4-4.2-1.2-5.2c-0.8-1.1-2-1.6-3.7-1.6c-1.3,0-2.5,0.3-3.5,1s-2.2,1.7-3.5,2.9v18.5h-4.3
			V106H711.7z"/>
		<path class="st1" d="M739.9,118.9c0-2.1,0.3-4,1-5.7c0.6-1.7,1.5-3.1,2.6-4.2c1.1-1.2,2.3-2,3.7-2.7c1.4-0.6,2.8-0.9,4.3-0.9
			c1.6,0,3.1,0.3,4.3,0.8c1.3,0.6,2.4,1.4,3.2,2.4c0.9,1.1,1.5,2.3,2,3.8s0.7,3.1,0.7,4.9c0,0.9-0.1,1.7-0.2,2.4h-17.3
			c0.2,2.8,1,5,2.6,6.6c1.5,1.6,3.5,2.4,6,2.4c1.2,0,2.4-0.2,3.4-0.6c1-0.4,2-0.8,3-1.4l1.5,2.8c-1.1,0.7-2.4,1.3-3.7,1.8
			c-1.4,0.5-2.9,0.8-4.7,0.8c-1.7,0-3.3-0.3-4.8-0.9c-1.5-0.6-2.8-1.5-3.9-2.6c-1.1-1.1-2-2.5-2.6-4.2
			C740.2,122.8,739.9,121,739.9,118.9z M757.8,116.9c0-2.6-0.6-4.6-1.7-6c-1.1-1.4-2.7-2.1-4.7-2.1c-0.9,0-1.8,0.2-2.6,0.6
			s-1.6,0.9-2.2,1.6c-0.7,0.7-1.2,1.5-1.7,2.5c-0.4,1-0.7,2.1-0.9,3.4H757.8z"/>
		<path class="st1" d="M768.5,125.8c1.1,0.9,2.3,1.7,3.4,2.2c1.2,0.6,2.5,0.8,4.1,0.8c1.7,0,2.9-0.4,3.8-1.2
			c0.8-0.8,1.3-1.7,1.3-2.8c0-0.7-0.2-1.2-0.5-1.7c-0.4-0.5-0.8-0.9-1.3-1.3s-1.2-0.7-1.9-1s-1.4-0.6-2.1-0.8
			c-0.9-0.3-1.8-0.7-2.7-1.1s-1.7-0.9-2.4-1.5s-1.3-1.3-1.8-2c-0.5-0.8-0.7-1.7-0.7-2.8c0-1,0.2-2,0.6-2.9s1-1.7,1.7-2.3
			c0.8-0.6,1.7-1.2,2.8-1.5c1.1-0.4,2.3-0.6,3.7-0.6c1.6,0,3.1,0.3,4.4,0.8c1.4,0.6,2.5,1.2,3.5,2.1l-2.1,2.7
			c-0.9-0.7-1.8-1.2-2.7-1.6s-2-0.6-3.1-0.6c-1.6,0-2.8,0.4-3.6,1.1s-1.1,1.6-1.1,2.6c0,0.6,0.2,1.1,0.5,1.6
			c0.3,0.4,0.7,0.8,1.3,1.2c0.5,0.3,1.1,0.6,1.8,0.9s1.4,0.5,2.1,0.8c0.9,0.4,1.8,0.7,2.8,1.1c0.9,0.4,1.8,0.9,2.5,1.4
			c0.7,0.6,1.3,1.3,1.8,2.1c0.5,0.8,0.7,1.9,0.7,3.1c0,1.1-0.2,2-0.6,2.9c-0.4,0.9-1,1.7-1.8,2.4s-1.8,1.3-2.9,1.7
			c-1.2,0.4-2.5,0.6-4,0.6c-1.8,0-3.6-0.3-5.2-1c-1.7-0.7-3.1-1.5-4.3-2.5L768.5,125.8z"/>
		<path class="st1" d="M791.9,125.8c1.1,0.9,2.3,1.7,3.4,2.2c1.2,0.6,2.5,0.8,4.1,0.8c1.7,0,2.9-0.4,3.8-1.2s1.3-1.7,1.3-2.8
			c0-0.7-0.2-1.2-0.5-1.7c-0.4-0.5-0.8-0.9-1.3-1.3s-1.2-0.7-1.9-1s-1.4-0.6-2.1-0.8c-0.9-0.3-1.8-0.7-2.7-1.1s-1.7-0.9-2.4-1.5
			s-1.3-1.3-1.8-2c-0.5-0.8-0.7-1.7-0.7-2.8c0-1,0.2-2,0.6-2.9s1-1.7,1.7-2.3c0.8-0.6,1.7-1.2,2.8-1.5c1.1-0.4,2.3-0.6,3.7-0.6
			c1.6,0,3.1,0.3,4.4,0.8c1.4,0.6,2.5,1.2,3.5,2.1l-2.1,2.7c-0.9-0.7-1.8-1.2-2.7-1.6s-2-0.6-3.1-0.6c-1.6,0-2.8,0.4-3.6,1.1
			s-1.1,1.6-1.1,2.6c0,0.6,0.2,1.1,0.5,1.6c0.3,0.4,0.7,0.8,1.3,1.2c0.5,0.3,1.1,0.6,1.8,0.9s1.4,0.5,2.1,0.8
			c0.9,0.4,1.8,0.7,2.8,1.1c0.9,0.4,1.8,0.9,2.5,1.4c0.7,0.6,1.3,1.3,1.8,2.1c0.5,0.8,0.7,1.9,0.7,3.1c0,1.1-0.2,2-0.6,2.9
			c-0.4,0.9-1,1.7-1.8,2.4s-1.8,1.3-2.9,1.7c-1.2,0.4-2.5,0.6-4,0.6c-1.8,0-3.6-0.3-5.2-1c-1.7-0.7-3.1-1.5-4.3-2.5L791.9,125.8z"/>
		<path class="st1" d="M391.9,180.3h-12.6l-3.3,10.5h-4.5l11.7-34.5h4.9l11.7,34.5h-4.7L391.9,180.3z M390.8,176.8l-1.6-5.3
			c-0.6-1.9-1.2-3.9-1.8-5.8c-0.6-1.9-1.1-3.9-1.7-5.9h-0.2c-0.5,2-1.1,4-1.6,5.9c-0.6,1.9-1.2,3.8-1.8,5.8l-1.6,5.3H390.8z"/>
		<path class="st1" d="M403.8,178.1c0-2.1,0.3-3.9,0.9-5.6c0.6-1.7,1.4-3.1,2.4-4.2c1-1.2,2.2-2.1,3.5-2.7c1.3-0.6,2.7-0.9,4.2-0.9
			s2.8,0.3,3.8,0.8c1.1,0.5,2.2,1.2,3.3,2.2l-0.2-4.4v-9.8h4.4V191h-3.6l-0.4-3h-0.2c-1,1-2.2,1.8-3.5,2.6c-1.3,0.7-2.7,1.1-4.2,1.1
			c-3.2,0-5.8-1.2-7.7-3.5C404.8,185.7,403.8,182.4,403.8,178.1z M408.3,178c0,3.1,0.6,5.5,1.8,7.2c1.2,1.7,3,2.6,5.2,2.6
			c1.2,0,2.3-0.3,3.4-0.9c1.1-0.6,2.1-1.5,3.2-2.7v-13.4c-1.1-1-2.1-1.7-3.1-2.1c-1-0.4-2-0.6-3.1-0.6c-1,0-2,0.2-2.9,0.7
			s-1.7,1.1-2.3,2c-0.7,0.9-1.2,1.9-1.6,3.1C408.5,175.2,408.3,176.6,408.3,178z"/>
		<path class="st1" d="M435.1,165.2h3.6l0.4,3.7h0.2c1.1-1.2,2.3-2.3,3.7-3.1c1.3-0.8,2.7-1.2,4.3-1.2c2,0,3.5,0.4,4.6,1.3
			c1.1,0.9,1.9,2.1,2.4,3.6c1.3-1.5,2.7-2.7,4-3.6c1.3-0.9,2.8-1.3,4.4-1.3c2.6,0,4.6,0.8,5.9,2.5s1.9,4.2,1.9,7.5v16.2h-4.3v-15.6
			c0-2.4-0.4-4.2-1.2-5.2c-0.8-1.1-2-1.6-3.6-1.6c-1.9,0-4.1,1.3-6.4,3.9v18.5h-4.3v-15.6c0-2.4-0.4-4.2-1.2-5.2
			c-0.8-1.1-2-1.6-3.6-1.6c-1.9,0-4.1,1.3-6.4,3.9v18.5h-4.3v-25.6H435.1z"/>
		<path class="st1" d="M482.3,160c-0.8,0-1.6-0.3-2.1-0.8c-0.6-0.5-0.9-1.2-0.9-2s0.3-1.5,0.9-2s1.3-0.8,2.1-0.8
			c0.8,0,1.6,0.3,2.1,0.8s0.9,1.2,0.9,2s-0.3,1.5-0.9,2C483.9,159.7,483.1,160,482.3,160z M480.1,165.2h4.3v25.6h-4.3V165.2z"/>
		<path class="st1" d="M494.4,165.2h3.6l0.4,3.7h0.2c1.2-1.2,2.5-2.3,3.9-3.1c1.3-0.8,2.9-1.2,4.7-1.2c2.7,0,4.7,0.8,5.9,2.5
			s1.9,4.2,1.9,7.5v16.2h-4.3v-15.6c0-2.4-0.4-4.2-1.2-5.2c-0.8-1.1-2-1.6-3.7-1.6c-1.3,0-2.5,0.3-3.5,1s-2.2,1.7-3.5,2.9v18.5h-4.3
			v-25.6H494.4z"/>
		<path class="st1" d="M526.7,160c-0.8,0-1.6-0.3-2.1-0.8c-0.6-0.5-0.9-1.2-0.9-2s0.3-1.5,0.9-2c0.6-0.5,1.3-0.8,2.1-0.8
			s1.6,0.3,2.1,0.8c0.6,0.5,0.9,1.2,0.9,2s-0.3,1.5-0.9,2C528.2,159.7,527.5,160,526.7,160z M524.5,165.2h4.3v25.6h-4.3V165.2z"/>
		<path class="st1" d="M538.1,185c1.1,0.9,2.3,1.7,3.4,2.2c1.2,0.6,2.5,0.8,4.1,0.8c1.7,0,2.9-0.4,3.8-1.2c0.8-0.8,1.3-1.7,1.3-2.8
			c0-0.7-0.2-1.2-0.5-1.7c-0.4-0.5-0.8-0.9-1.3-1.3c-0.5-0.4-1.2-0.7-1.9-1s-1.4-0.6-2.1-0.8c-0.9-0.3-1.8-0.7-2.7-1.1
			c-0.9-0.4-1.7-0.9-2.4-1.5s-1.3-1.3-1.8-2c-0.5-0.8-0.7-1.7-0.7-2.8c0-1,0.2-2,0.6-2.9c0.4-0.9,1-1.7,1.7-2.3
			c0.8-0.6,1.7-1.2,2.8-1.5c1.1-0.4,2.3-0.6,3.7-0.6c1.6,0,3.1,0.3,4.4,0.8s2.5,1.2,3.5,2.1l-2.1,2.7c-0.9-0.7-1.8-1.2-2.7-1.6
			c-0.9-0.4-2-0.6-3.1-0.6c-1.6,0-2.8,0.4-3.6,1.1c-0.8,0.7-1.1,1.6-1.1,2.6c0,0.6,0.2,1.1,0.5,1.6c0.3,0.4,0.7,0.8,1.3,1.2
			c0.5,0.3,1.1,0.6,1.8,0.9c0.7,0.3,1.4,0.5,2.1,0.8c0.9,0.4,1.8,0.7,2.8,1.1c0.9,0.4,1.8,0.9,2.5,1.4c0.7,0.6,1.3,1.3,1.8,2.1
			s0.7,1.9,0.7,3.1c0,1.1-0.2,2-0.6,2.9c-0.4,0.9-1,1.7-1.8,2.4s-1.8,1.3-2.9,1.7c-1.2,0.4-2.5,0.6-4,0.6c-1.8,0-3.6-0.3-5.2-1
			c-1.7-0.7-3.1-1.5-4.3-2.5L538.1,185z"/>
		<path class="st1" d="M562.8,168.8H559v-3.3l4-0.3l0.5-7.2h3.6v7.2h6.9v3.5h-6.9V183c0,1.6,0.3,2.8,0.9,3.7
			c0.6,0.9,1.6,1.3,3.1,1.3c0.5,0,0.9-0.1,1.5-0.2c0.5-0.1,1-0.3,1.4-0.5l0.8,3.3c-0.7,0.2-1.5,0.5-2.3,0.7s-1.6,0.3-2.4,0.3
			c-1.4,0-2.5-0.2-3.4-0.6c-0.9-0.4-1.7-1-2.3-1.7s-1-1.6-1.2-2.7c-0.2-1.1-0.4-2.2-0.4-3.5L562.8,168.8L562.8,168.8z"/>
		<path class="st1" d="M581.2,165.2h3.6l0.4,4.6h0.2c0.9-1.6,1.9-2.9,3.2-3.8c1.2-0.9,2.6-1.4,4.1-1.4c1,0,1.9,0.2,2.7,0.5l-0.8,3.8
			c-0.4-0.1-0.8-0.2-1.2-0.3s-0.8-0.1-1.3-0.1c-1.1,0-2.2,0.4-3.4,1.3c-1.2,0.9-2.2,2.4-3.1,4.6v16.4h-4.3v-25.6H581.2z"/>
		<path class="st1" d="M598.2,184.2c0-2.8,1.3-5,3.8-6.4c2.5-1.5,6.5-2.5,12-3.1c0-0.8-0.1-1.6-0.2-2.4c-0.2-0.8-0.4-1.5-0.8-2.1
			c-0.4-0.6-0.9-1.1-1.6-1.4c-0.7-0.4-1.5-0.6-2.6-0.6c-1.5,0-2.9,0.3-4.2,0.8c-1.3,0.6-2.4,1.2-3.4,1.9l-1.7-3
			c1.2-0.8,2.7-1.5,4.4-2.2s3.6-1.1,5.7-1.1c3.1,0,5.4,1,6.8,2.9c1.4,1.9,2.1,4.5,2.1,7.7v15.7h-3.6l-0.4-3.1h-0.1
			c-1.2,1-2.6,1.9-4,2.6c-1.4,0.7-2.9,1.1-4.5,1.1c-2.2,0-4-0.6-5.4-1.9C598.9,188.3,598.2,186.5,598.2,184.2z M602.5,183.9
			c0,1.5,0.4,2.5,1.3,3.2c0.9,0.6,1.9,0.9,3.2,0.9c1.2,0,2.4-0.3,3.5-0.9c1.1-0.6,2.3-1.4,3.5-2.6v-7.1c-2.1,0.3-3.9,0.6-5.4,1
			s-2.7,0.8-3.6,1.4c-0.9,0.5-1.5,1.1-1.9,1.8C602.7,182.3,602.5,183.1,602.5,183.9z"/>
		<path class="st1" d="M628.5,168.8h-3.8v-3.3l4-0.3l0.5-7.2h3.6v7.2h6.9v3.5h-6.9V183c0,1.6,0.3,2.8,0.9,3.7
			c0.6,0.9,1.6,1.3,3.1,1.3c0.5,0,0.9-0.1,1.5-0.2c0.5-0.1,1-0.3,1.4-0.5l0.8,3.3c-0.7,0.2-1.5,0.5-2.3,0.7s-1.6,0.3-2.4,0.3
			c-1.4,0-2.5-0.2-3.4-0.6c-0.9-0.4-1.7-1-2.3-1.7s-1-1.6-1.2-2.7c-0.2-1.1-0.4-2.2-0.4-3.5L628.5,168.8L628.5,168.8z"/>
		<path class="st1" d="M649.1,160c-0.8,0-1.6-0.3-2.1-0.8c-0.6-0.5-0.9-1.2-0.9-2s0.3-1.5,0.9-2c0.6-0.5,1.3-0.8,2.1-0.8
			s1.6,0.3,2.1,0.8c0.6,0.5,0.9,1.2,0.9,2s-0.3,1.5-0.9,2C650.6,159.7,649.9,160,649.1,160z M646.9,165.2h4.3v25.6h-4.3V165.2z"/>
		<path class="st1" d="M659.2,178.1c0-2.1,0.3-4,1-5.7c0.6-1.7,1.5-3.1,2.6-4.2c1.1-1.2,2.3-2,3.8-2.6c1.4-0.6,2.9-0.9,4.5-0.9
			s3.1,0.3,4.5,0.9c1.4,0.6,2.7,1.5,3.8,2.6c1.1,1.2,2,2.6,2.6,4.2c0.6,1.7,1,3.6,1,5.7c0,2.1-0.3,4-1,5.7s-1.5,3.1-2.6,4.2
			c-1.1,1.1-2.3,2-3.8,2.6c-1.4,0.6-2.9,0.9-4.5,0.9s-3.1-0.3-4.5-0.9c-1.4-0.6-2.7-1.5-3.8-2.6s-2-2.5-2.6-4.2
			C659.6,182.1,659.2,180.2,659.2,178.1z M663.7,178.1c0,1.5,0.2,2.8,0.5,4c0.4,1.2,0.8,2.2,1.5,3.1c0.6,0.9,1.4,1.5,2.3,2
			c0.9,0.5,1.9,0.7,3,0.7s2.1-0.2,3-0.7s1.7-1.1,2.3-2s1.1-1.9,1.5-3.1c0.4-1.2,0.5-2.5,0.5-4s-0.2-2.8-0.5-4
			c-0.4-1.2-0.9-2.3-1.5-3.1c-0.7-0.9-1.4-1.6-2.3-2c-0.9-0.5-1.9-0.7-3-0.7s-2.1,0.2-3,0.7s-1.7,1.2-2.3,2
			c-0.7,0.9-1.2,1.9-1.5,3.1C663.9,175.3,663.7,176.6,663.7,178.1z"/>
		<path class="st1" d="M689.9,165.2h3.6l0.4,3.7h0.2c1.2-1.2,2.5-2.3,3.9-3.1c1.3-0.8,2.9-1.2,4.7-1.2c2.7,0,4.7,0.8,5.9,2.5
			s1.9,4.2,1.9,7.5v16.2h-4.3v-15.6c0-2.4-0.4-4.2-1.2-5.2c-0.8-1.1-2-1.6-3.7-1.6c-1.3,0-2.5,0.3-3.5,1s-2.2,1.7-3.5,2.9v18.5H690
			v-25.6H689.9z"/>
	</g>
</g>
</svg>
